<svg width="124" height="32" viewBox="0 0 124 32" fill="none" xmlns="http://www.w3.org/2000/svg">
<rect width="124" height="32"/>
<g id="NOUX - Desktop - Homepage">
<g clip-path="url(#clip0_0_1)">
<rect x="-40" y="-36" width="1440" height="6975" rx="16"/>
<g id="nav" filter="url(#filter0_b_0_1)">
<rect x="-16" y="-20" width="1392" height="72" rx="36"/>
<g id="Logo_dark" clip-path="url(#clip1_0_1)">
<g id="Group">
<path id="Vector" d="M122.477 0.658813H115.277C114.827 0.658813 114.401 0.858343 114.111 1.20281L108.842 7.6254L114.492 14.1967L123.64 3.15858C124.471 2.16846 123.768 0.660696 122.475 0.660696L122.477 0.658813Z" fill="#6300FF"/>
<path id="Vector_2" d="M123.62 28.3727L100.79 1.20281C100.502 0.858343 100.072 0.658813 99.6241 0.658813H92.4228C91.1328 0.658813 90.4285 2.16658 91.259 3.1567L101.554 15.4089C101.731 15.6216 101.731 15.9303 101.554 16.143L91.2778 28.3727C90.4473 29.3628 91.1498 30.8706 92.4416 30.8706H99.6429C100.091 30.8706 100.519 30.6729 100.809 30.3285L107.014 22.9421C107.242 22.6729 107.66 22.6729 107.886 22.944L114.091 30.3266C114.379 30.671 114.806 30.8706 115.256 30.8706H122.456C123.748 30.8706 124.452 29.3628 123.621 28.3727H123.62Z" fill="#110326"/>
</g>
<path id="Vector_3" d="M44.6314 0C35.7899 0 28.6244 7.16235 28.6244 16C28.6244 24.8376 35.7899 32 44.6314 32C53.4729 32 60.6385 24.8376 60.6385 16C60.6385 7.16235 53.4729 0 44.6314 0ZM44.6314 22.8141C40.8669 22.8141 37.8143 19.7628 37.8143 16C37.8143 12.2372 40.8669 9.18588 44.6314 9.18588C48.3959 9.18588 51.4485 12.2372 51.4485 16C51.4485 19.7628 48.3959 22.8141 44.6314 22.8141Z" fill="#110326"/>
<path id="Vector_4" d="M27.1178 14.3812V29.4588C27.1178 30.2908 26.4436 30.9647 25.6113 30.9647H19.7734C18.941 30.9647 18.2669 30.2908 18.2669 29.4588V14.3172C18.2669 11.6781 16.1069 9.45507 13.4666 9.5059C10.8264 9.55672 8.85096 11.6424 8.85096 14.2118V29.4588C8.85096 30.2908 8.17678 30.9647 7.34441 30.9647H1.50655C0.674179 30.9647 0 30.2908 0 29.4588V14.2118C0 6.69178 6.12787 0.602366 13.6644 0.658837C21.1406 0.715307 27.1178 6.91013 27.1178 14.3812Z" fill="#110326"/>
<path id="Vector_5" d="M62.145 17.2423V2.1647C62.145 1.3327 62.8192 0.658813 63.6515 0.658813H69.4894C70.3218 0.658813 70.996 1.3327 70.996 2.1647V17.3063C70.996 19.9454 73.156 22.1685 75.7962 22.1176C78.3535 22.0687 80.4119 19.9812 80.4119 17.4118V2.1647C80.4119 1.3327 81.086 0.658813 81.9184 0.658813H87.7563C88.5886 0.658813 89.2628 1.3327 89.2628 2.1647V17.4118C89.2628 24.9318 83.1349 31.0212 75.5985 30.9647C68.1222 30.9082 62.145 24.7134 62.145 17.2423Z" fill="#110326"/>
</g>
</g>
</g>
</g>
<defs>
<filter id="filter0_b_0_1" x="-20" y="-24" width="1400" height="80" filterUnits="userSpaceOnUse" color-interpolation-filters="sRGB">
<feFlood flood-opacity="0" result="BackgroundImageFix"/>
<feGaussianBlur in="BackgroundImageFix" stdDeviation="2"/>
<feComposite in2="SourceAlpha" operator="in" result="effect1_backgroundBlur_0_1"/>
<feBlend mode="normal" in="SourceGraphic" in2="effect1_backgroundBlur_0_1" result="shape"/>
</filter>
<clipPath id="clip0_0_1">
<rect x="-40" y="-36" width="1440" height="6975" rx="16"/>
</clipPath>
<clipPath id="clip1_0_1">
<rect width="124" height="32"/>
</clipPath>
</defs>
</svg>
