<svg width="108" height="108" viewBox="0 0 108 108" fill="none" xmlns="http://www.w3.org/2000/svg">
<g id="Support Icon 1">
<g id="Union">
<path fill-rule="evenodd" clip-rule="evenodd" d="M61.8787 13.5981C61.8787 14.501 61.1486 15.2312 60.2456 15.2312C59.3427 15.2312 58.6126 14.501 58.6126 13.5981V5.00808C58.6126 4.10512 59.3427 3.375 60.2456 3.375C61.1486 3.375 61.8787 4.10514 61.8787 5.00808V13.5981ZM86.7866 67.4322L100.081 78.6582L100.082 78.6585C100.771 79.24 100.858 80.2705 100.277 80.9598C99.9542 81.3419 99.4935 81.5379 99.0281 81.5379C98.6559 81.5379 98.2816 81.412 97.9748 81.1524L84.634 69.8872L70.3483 81.9424C67.7534 84.1324 65.284 85.4389 62.8099 86.1394L81.4531 101.74C82.1455 102.318 82.2353 103.347 81.6573 104.04C81.3341 104.425 80.8704 104.624 80.4032 104.624C80.0341 104.624 79.6632 104.5 79.3547 104.244L58.4965 86.7911C55.7563 86.8925 52.9196 86.4761 49.8201 85.8783L28.0709 104.238C27.7623 104.498 27.3898 104.624 27.0176 104.624C26.5522 104.624 26.0915 104.426 25.77 104.044C25.1869 103.354 25.2733 102.323 25.9626 101.743L48.311 82.8779C48.6931 82.5561 49.1946 82.4206 49.6845 82.5234C57.1879 84.016 62.1836 84.5566 68.2406 79.4434L83.0829 66.9144C83.795 66.3132 84.2295 65.464 84.3095 64.5267C84.3877 63.5907 84.1002 62.683 83.4977 61.9692C82.8969 61.2541 82.0507 60.8196 81.1134 60.7397C80.1696 60.6679 79.2714 60.9469 78.5593 61.5463L78.5546 61.5497C77.8639 62.1329 76.8351 62.0431 76.2536 61.3538C75.6722 60.6648 75.7603 59.6343 76.4496 59.0528L76.4513 59.0511L79.6293 56.3695C81.1059 55.1219 81.2951 52.9009 80.0491 51.4213C79.4501 50.7092 78.6039 50.2747 77.6666 50.1948C76.7555 50.1229 75.8229 50.4023 75.1108 51.0065H75.1091C74.4202 51.5897 73.3896 51.5033 72.8082 50.814C72.2253 50.1264 72.3118 49.0962 72.9994 48.513C73.0011 48.513 73.0028 48.5113 73.0028 48.5113L75.6221 46.2951C77.1014 45.0476 77.2909 42.8283 76.0433 41.3469C75.4442 40.6349 74.5933 40.2004 73.6526 40.1222C72.7282 40.0504 71.8185 40.3314 71.1098 40.9241L71.1016 40.9323C70.4127 41.5134 69.3821 41.4286 68.8024 40.741C68.2179 40.0521 68.3043 39.0215 68.9919 38.4401L68.9936 38.4384L70.2283 37.3932C71.7063 36.1456 71.8954 33.923 70.6495 32.445C70.05 31.7329 69.2025 31.2968 68.2635 31.2185C67.3197 31.1304 66.415 31.4257 65.7012 32.0252L56.1527 40.0878C57.2142 41.28 57.8674 42.7974 57.9345 44.4107C58.008 46.1861 57.3839 47.8239 56.1772 49.0242C55.1122 50.298 53.4779 51.1425 51.6699 51.2959C51.4739 51.3139 51.2762 51.3221 51.082 51.3221C50.8664 51.3221 50.6558 51.2944 50.4447 51.2667C50.3889 51.2594 50.333 51.252 50.277 51.2452C50.2787 51.2735 50.2843 51.3013 50.2899 51.3294L50.2899 51.3294C50.2957 51.3581 50.3015 51.387 50.3032 51.4167C50.3801 53.1903 49.7595 54.8333 48.5592 56.04C47.2738 57.5571 45.3975 58.3474 43.4933 58.3474H43.4885C43.7937 60.2305 43.3382 62.2259 42.0154 63.7954C41.0553 64.9338 39.7896 65.6606 38.4406 65.9872C38.8832 66.8037 39.1673 67.7036 39.2473 68.6606C39.3994 70.4683 38.8407 72.2207 37.6747 73.5973C36.5169 74.9738 34.8805 75.8166 33.0759 75.97C32.8799 75.9864 32.6839 75.9962 32.4897 75.9962C30.894 75.9962 29.367 75.441 28.1375 74.404L22.7844 69.8903L9.43754 81.1537C9.13067 81.4116 8.75812 81.5375 8.38592 81.5375C7.91881 81.5375 7.45815 81.3398 7.13493 80.9577C6.55349 80.2688 6.64025 79.2383 7.3309 78.6568L20.6325 67.4308C19.3617 65.0513 19.574 62.04 21.4146 59.8615C22.2884 58.8244 23.41 58.1188 24.6203 57.7514C22.7719 55.282 22.7912 51.7726 24.8605 49.3165C25.7831 48.224 26.9817 47.4973 28.2671 47.151C27.7248 46.2627 27.3934 45.2536 27.3019 44.1822C27.1502 42.3758 27.7067 40.622 28.8697 39.2421C29.941 37.9747 31.4074 37.1613 33.0405 36.9197C32.291 34.7378 32.67 32.2263 34.2606 30.3401C36.6695 27.4887 40.953 27.1212 43.8126 29.5283L45.4735 30.931C45.6532 30.0165 45.9978 29.1101 46.5595 28.2708C48.2479 25.7443 51.7393 24.1163 55.7274 26.1869L63.3474 29.7422L63.5989 29.5299C64.9788 28.3674 66.7262 27.8054 68.5437 27.9639C70.3516 28.1173 71.9895 28.96 73.1507 30.34C74.7412 32.2262 75.1199 34.7377 74.3721 36.9196C76.0051 37.1616 77.4749 37.9764 78.5429 39.2403C80.4713 41.5314 80.6217 44.7305 79.1437 47.1509C80.4699 47.5055 81.6522 48.2519 82.5504 49.3182C84.6176 51.7742 84.639 55.2836 82.792 57.753C84.0361 58.1269 85.145 58.852 85.9976 59.8662C87.1622 61.241 87.7205 62.9967 87.5687 64.8029C87.4905 65.7402 87.2176 66.6286 86.7866 67.4322ZM49.2763 30.0858C48.4353 31.3415 48.2097 33.2394 49.446 34.2828L49.4459 34.2827C49.4478 34.2835 49.448 34.2851 49.4482 34.2867C49.4483 34.2871 49.4483 34.2875 49.4484 34.2879C49.4486 34.2884 49.4487 34.2888 49.449 34.2892L49.4606 34.299L53.7066 37.882L60.5999 32.0618L54.2864 29.1158C51.2751 27.5592 49.691 29.4652 49.2763 30.0858ZM32.802 72.714C33.7376 72.6354 34.5835 72.2013 35.1829 71.4875L35.1828 71.4874C35.7854 70.7754 36.0742 69.869 35.9963 68.9304C35.9181 67.9913 35.4836 67.1438 34.7716 66.5443L28.8237 61.5291C27.3428 60.3043 25.1494 60.4985 23.9116 61.9683C22.6623 63.4445 22.8501 65.6642 24.328 66.9182L30.2446 71.9056C30.955 72.5051 31.8566 72.799 32.802 72.714ZM34.577 62.1101C36.0563 63.3547 38.2742 63.1652 39.5218 61.6872L39.5218 61.6872C40.7664 60.2109 40.5786 57.99 39.0989 56.7424L32.32 51.015C32.3185 51.0135 32.3162 51.0127 32.3138 51.012C32.3113 51.0111 32.3088 51.0103 32.307 51.0085L32.3053 51.0068C31.5932 50.4039 30.6851 50.1182 29.7461 50.1951C28.8088 50.2754 27.9596 50.7095 27.357 51.4233C26.1125 52.9012 26.302 55.1205 27.78 56.3715L30.9563 59.0515L30.958 59.0532C30.9604 59.0554 30.9621 59.0581 30.9637 59.0606C30.9646 59.0621 30.9656 59.0637 30.9667 59.065C30.9675 59.0661 30.9685 59.067 30.9696 59.0678L34.577 62.1101ZM41.2086 54.2472C42.69 55.4965 44.9076 55.307 46.1585 53.829L46.1587 53.829C46.7991 53.1806 47.0801 52.4065 47.0457 51.5536C47.0015 50.5377 46.5133 49.5384 45.7359 48.8818L36.3145 40.9321L36.2999 40.9192C35.5895 40.3265 34.6732 40.0359 33.7523 40.1224C32.8149 40.2006 31.9671 40.635 31.3662 41.3471C30.7668 42.0575 30.4779 42.969 30.5579 43.9063C30.6378 44.8454 31.0723 45.6929 31.7844 46.2924L34.3857 48.4871C34.3874 48.4888 34.3905 48.4888 34.3922 48.4905L41.2086 54.2472ZM51.3994 48.0397C52.3366 47.9598 53.1825 47.5253 53.7819 46.8132L53.7818 46.8132C54.4269 46.1599 54.711 45.3924 54.6773 44.5456C54.633 43.5263 54.1465 42.5271 53.3691 41.8721L48.5876 37.8337H48.5859L47.4883 36.9076L43.9411 33.9125C43.9404 33.9119 43.94 33.9113 43.9397 33.9107L43.9397 33.9107C43.9391 33.9098 43.9387 33.9091 43.9377 33.9091L41.7051 32.0229C40.2272 30.7784 38.0062 30.9696 36.7569 32.4458C35.5123 33.9221 35.7018 36.1431 37.1798 37.3924L38.3999 38.4195C38.4031 38.4226 38.4063 38.425 38.4094 38.4274C38.4111 38.4286 38.4128 38.4299 38.4145 38.4313C38.4162 38.4327 38.4179 38.4342 38.4196 38.4359L47.8427 46.3873C48.1319 46.6322 48.3816 46.918 48.6266 47.2038C48.6936 47.166 48.7654 47.1677 48.8453 47.2348C49.554 47.8322 50.457 48.1262 51.3994 48.0397ZM81.8906 19.9257C82.3935 19.9257 82.8885 19.6937 83.21 19.2596L88.2906 12.3353C88.823 11.6086 88.6662 10.5862 87.9394 10.0524C87.208 9.51686 86.1886 9.67847 85.6565 10.4035L80.576 17.3277C80.0435 18.0545 80.2003 19.0768 80.9271 19.6107C81.2179 19.823 81.5559 19.9257 81.8906 19.9257ZM38.6137 19.9259C38.1105 19.9259 37.6141 19.696 37.2956 19.2598L32.2137 12.3355C31.6795 11.6089 31.8364 10.5865 32.5631 10.054C33.2915 9.5198 34.3122 9.67839 34.8447 10.4034L39.9283 17.3277C40.4625 18.0543 40.3056 19.0767 39.5789 19.6092C39.2866 19.8232 38.9484 19.9259 38.6137 19.9259Z" fill="#110326"/>
<path d="M100.081 78.6582L99.9198 78.8492L99.9444 78.87L99.9735 78.8838L100.081 78.6582ZM86.7866 67.4322L86.5662 67.314L86.4705 67.4925L86.6253 67.6232L86.7866 67.4322ZM100.082 78.6585L100.243 78.4675L100.218 78.4468L100.189 78.4329L100.082 78.6585ZM100.277 80.9598L100.468 81.1213L100.469 81.1208L100.277 80.9598ZM97.9748 81.1524L98.1362 80.9615L98.136 80.9614L97.9748 81.1524ZM84.634 69.8872L84.7953 69.6962L84.6341 69.56L84.4728 69.6961L84.634 69.8872ZM70.3483 81.9424L70.187 81.7513L70.187 81.7513L70.3483 81.9424ZM62.8099 86.1394L62.7418 85.8989L62.2868 86.0277L62.6494 86.3312L62.8099 86.1394ZM81.4531 101.74L81.2927 101.932L81.2929 101.932L81.4531 101.74ZM81.6573 104.04L81.8488 104.2L81.8492 104.2L81.6573 104.04ZM79.3547 104.244L79.1942 104.435L79.195 104.436L79.3547 104.244ZM58.4965 86.7911L58.6569 86.5993L58.5833 86.5377L58.4873 86.5412L58.4965 86.7911ZM49.8201 85.8783L49.8674 85.6328L49.7501 85.6102L49.6588 85.6873L49.8201 85.8783ZM28.0709 104.238L28.2319 104.43L28.2322 104.43L28.0709 104.238ZM25.77 104.044L25.9613 103.883L25.961 103.883L25.77 104.044ZM25.9626 101.743L26.1235 101.935L26.1238 101.934L25.9626 101.743ZM48.311 82.8779L48.1499 82.6867L48.1497 82.6869L48.311 82.8779ZM49.6845 82.5234L49.6332 82.7681L49.6357 82.7686L49.6845 82.5234ZM68.2406 79.4434L68.0794 79.2523H68.0794L68.2406 79.4434ZM83.0829 66.9144L83.2442 67.1054L83.2442 67.1054L83.0829 66.9144ZM84.3095 64.5267L84.5586 64.5479L84.5586 64.5475L84.3095 64.5267ZM83.4977 61.9692L83.3063 62.13L83.3066 62.1305L83.4977 61.9692ZM81.1134 60.7397L81.1346 60.4906L81.1324 60.4904L81.1134 60.7397ZM78.5593 61.5463L78.7046 61.7498L78.7127 61.744L78.7203 61.7376L78.5593 61.5463ZM78.5546 61.5497L78.4093 61.3462L78.4011 61.3522L78.3933 61.3587L78.5546 61.5497ZM76.2536 61.3538L76.4447 61.1926L76.4447 61.1925L76.2536 61.3538ZM76.4496 59.0528L76.6108 59.2439L76.6189 59.2371L76.6264 59.2296L76.4496 59.0528ZM76.4513 59.0511L76.2901 58.8601L76.282 58.8669L76.2745 58.8743L76.4513 59.0511ZM79.6293 56.3695L79.7905 56.5605L79.7907 56.5604L79.6293 56.3695ZM80.0491 51.4213L79.8578 51.5822L79.8579 51.5823L80.0491 51.4213ZM77.6666 50.1948L77.6878 49.9457L77.6862 49.9455L77.6666 50.1948ZM75.1108 51.0065V51.2565H75.2026L75.2726 51.1972L75.1108 51.0065ZM75.1091 51.0065V50.7565H75.0175L74.9476 50.8157L75.1091 51.0065ZM72.8082 50.814L72.9992 50.6528L72.9989 50.6523L72.8082 50.814ZM72.9994 48.513V48.263H72.9076L72.8377 48.3224L72.9994 48.513ZM73.0028 48.5113L72.8413 48.3205L72.8333 48.3272L72.826 48.3346L73.0028 48.5113ZM75.6221 46.2951L75.461 46.104L75.4607 46.1043L75.6221 46.2951ZM76.0433 41.3469L75.852 41.5079L75.8521 41.508L76.0433 41.3469ZM73.6526 40.1222L73.6733 39.873L73.6719 39.8729L73.6526 40.1222ZM71.1098 40.9241L70.9494 40.7323L70.9408 40.7395L70.933 40.7474L71.1098 40.9241ZM71.1016 40.9323L71.2628 41.1234L71.2709 41.1165L71.2784 41.109L71.1016 40.9323ZM68.8024 40.741L68.9935 40.5799L68.993 40.5793L68.8024 40.741ZM68.9919 38.4401L69.1533 38.631L69.1613 38.6243L69.1687 38.6169L68.9919 38.4401ZM68.9936 38.4384L68.8321 38.2476L68.8242 38.2543L68.8168 38.2616L68.9936 38.4384ZM70.2283 37.3932L70.067 37.2022L70.0668 37.2024L70.2283 37.3932ZM70.6495 32.445L70.4583 32.606L70.4584 32.6062L70.6495 32.445ZM68.2635 31.2185L68.2402 31.4675L68.2427 31.4677L68.2635 31.2185ZM65.7012 32.0252L65.5404 31.8338L65.5399 31.8342L65.7012 32.0252ZM56.1527 40.0878L55.9914 39.8968L55.7953 40.0624L55.966 40.2541L56.1527 40.0878ZM57.9345 44.4107L58.1842 44.4004V44.4004L57.9345 44.4107ZM56.1772 49.0242L56.0009 48.847L55.9927 48.8551L55.9854 48.8639L56.1772 49.0242ZM51.6699 51.2959L51.6487 51.0468L51.647 51.047L51.6699 51.2959ZM50.4447 51.2667L50.4772 51.0188L50.4447 51.2667ZM50.277 51.2452L50.3073 50.9971L50.0096 50.9607L50.0274 51.2601L50.277 51.2452ZM50.2899 51.3294L50.535 51.2803L50.535 51.2801L50.2899 51.3294ZM50.2899 51.3294L50.0448 51.3785L50.0448 51.3787L50.2899 51.3294ZM50.3032 51.4167L50.553 51.4059L50.5528 51.4023L50.3032 51.4167ZM48.5592 56.04L48.382 55.8637L48.375 55.8708L48.3685 55.8784L48.5592 56.04ZM43.4885 58.3474V58.0974H43.1947L43.2417 58.3874L43.4885 58.3474ZM42.0154 63.7954L42.2065 63.9566L42.2065 63.9566L42.0154 63.7954ZM38.4406 65.9872L38.3818 65.7442L38.066 65.8207L38.2208 66.1063L38.4406 65.9872ZM39.2473 68.6606L38.9981 68.6814L38.9982 68.6816L39.2473 68.6606ZM37.6747 73.5973L37.484 73.4357L37.4834 73.4364L37.6747 73.5973ZM33.0759 75.97L33.0966 76.2192L33.0971 76.2191L33.0759 75.97ZM28.1375 74.404L28.2987 74.2129L28.2986 74.2129L28.1375 74.404ZM22.7844 69.8903L22.9455 69.6991L22.7843 69.5632L22.6231 69.6992L22.7844 69.8903ZM9.43754 81.1537L9.59838 81.3451L9.59877 81.3448L9.43754 81.1537ZM7.13493 80.9577L6.94388 81.119L6.94407 81.1192L7.13493 80.9577ZM7.3309 78.6568L7.49191 78.8481L7.49215 78.8479L7.3309 78.6568ZM20.6325 67.4308L20.7937 67.6218L20.9482 67.4914L20.853 67.313L20.6325 67.4308ZM21.4146 59.8615L21.6056 60.0228L21.6058 60.0226L21.4146 59.8615ZM24.6203 57.7514L24.6929 57.9906L25.0341 57.887L24.8204 57.6016L24.6203 57.7514ZM24.8605 49.3165L24.6695 49.1552L24.6693 49.1554L24.8605 49.3165ZM28.2671 47.151L28.3322 47.3924L28.6544 47.3055L28.4805 47.0207L28.2671 47.151ZM27.3019 44.1822L27.0528 44.2031L27.0528 44.2034L27.3019 44.1822ZM28.8697 39.2421L28.6787 39.0807L28.6785 39.081L28.8697 39.2421ZM33.0405 36.9197L33.0771 37.167L33.3747 37.123L33.2769 36.8385L33.0405 36.9197ZM34.2606 30.3401L34.0696 30.1787L34.0695 30.1789L34.2606 30.3401ZM43.8126 29.5283L43.9739 29.3373L43.9736 29.337L43.8126 29.5283ZM45.4735 30.931L45.3122 31.122L45.6369 31.3962L45.7188 30.9792L45.4735 30.931ZM46.5595 28.2708L46.7673 28.4098L46.7674 28.4097L46.5595 28.2708ZM55.7274 26.1869L55.6121 26.409L55.6217 26.4134L55.7274 26.1869ZM63.3474 29.7422L63.2417 29.9688L63.3866 30.0364L63.5087 29.9332L63.3474 29.7422ZM63.5989 29.5299L63.4378 29.3387L63.4376 29.3389L63.5989 29.5299ZM68.5437 27.9639L68.5219 28.213L68.5225 28.213L68.5437 27.9639ZM73.1507 30.34L72.9594 30.501L72.9596 30.5012L73.1507 30.34ZM74.3721 36.9196L74.1356 36.8386L74.0381 37.1229L74.3354 37.1669L74.3721 36.9196ZM78.5429 39.2403L78.7342 39.0794L78.7339 39.079L78.5429 39.2403ZM79.1437 47.1509L78.9304 47.0206L78.7561 47.306L79.0792 47.3924L79.1437 47.1509ZM82.5504 49.3182L82.7417 49.1572L82.7416 49.1571L82.5504 49.3182ZM82.792 57.753L82.5918 57.6033L82.3776 57.8896L82.72 57.9925L82.792 57.753ZM85.9976 59.8662L85.8062 60.0271L85.8068 60.0278L85.9976 59.8662ZM87.5687 64.8029L87.3196 64.782L87.3196 64.7821L87.5687 64.8029ZM49.446 34.2828L49.2848 34.4739L49.6418 34.1274L49.446 34.2828ZM49.2763 30.0858L49.484 30.2249L49.4841 30.2247L49.2763 30.0858ZM49.4459 34.2827L49.5474 34.0542L49.2502 34.4382L49.4459 34.2827ZM49.4482 34.2867L49.6962 34.2546L49.6961 34.2541L49.4482 34.2867ZM49.4484 34.2879L49.6916 34.2297L49.6912 34.2284L49.4484 34.2879ZM49.449 34.2892L49.2546 34.4464L49.2692 34.4644L49.2868 34.4794L49.449 34.2892ZM49.4606 34.299L49.2984 34.4893L49.2993 34.4901L49.4606 34.299ZM53.7066 37.882L53.5454 38.073L53.7066 38.2091L53.8679 38.073L53.7066 37.882ZM60.5999 32.0618L60.7612 32.2528L61.06 32.0005L60.7056 31.8352L60.5999 32.0618ZM54.2864 29.1158L54.1715 29.338L54.1807 29.3423L54.2864 29.1158ZM35.1829 71.4875L35.3744 71.6482L35.6538 71.3156L35.2258 71.2412L35.1829 71.4875ZM32.802 72.714L32.7811 72.4649L32.7796 72.465L32.802 72.714ZM35.1828 71.4874L34.992 71.326L34.7102 71.659L35.14 71.7337L35.1828 71.4874ZM35.9963 68.9304L36.2455 68.9097L36.2455 68.9096L35.9963 68.9304ZM34.7716 66.5443L34.6104 66.7354L34.6105 66.7356L34.7716 66.5443ZM28.8237 61.5291L28.9849 61.3379L28.9831 61.3364L28.8237 61.5291ZM23.9116 61.9683L24.1024 62.1298L24.1028 62.1293L23.9116 61.9683ZM24.328 66.9182L24.1663 67.1089L24.1669 67.1094L24.328 66.9182ZM30.2446 71.9056L30.4058 71.7145L30.4057 71.7145L30.2446 71.9056ZM39.5218 61.6872L39.7128 61.8485L39.7237 61.8357L39.7327 61.8215L39.5218 61.6872ZM34.577 62.1101L34.4158 62.3013L34.416 62.3014L34.577 62.1101ZM39.5218 61.6872L39.3307 61.526L39.3199 61.5388L39.3109 61.5529L39.5218 61.6872ZM39.0989 56.7424L38.9376 56.9333L38.9378 56.9335L39.0989 56.7424ZM32.32 51.015L32.1434 51.192L32.1507 51.1993L32.1586 51.206L32.32 51.015ZM32.3138 51.012L32.3929 50.7748L32.3928 50.7748L32.3138 51.012ZM32.3053 51.0068L32.4821 50.8301L32.4748 50.8227L32.4669 50.816L32.3053 51.0068ZM29.7461 50.1951L29.7257 49.9459L29.7248 49.946L29.7461 50.1951ZM27.357 51.4233L27.166 51.262L27.1658 51.2623L27.357 51.4233ZM27.78 56.3715L27.6184 56.5623L27.6187 56.5626L27.78 56.3715ZM30.9563 59.0515L31.1331 58.8747L31.1256 58.8672L31.1175 58.8604L30.9563 59.0515ZM30.958 59.0532L30.7811 59.2301L30.7875 59.236L30.958 59.0532ZM30.9637 59.0606L31.1755 58.9278L31.1754 58.9277L30.9637 59.0606ZM30.9667 59.065L31.1614 58.9082L31.1614 58.9082L30.9667 59.065ZM30.9696 59.0678L31.1308 58.8767L31.123 58.8702L31.1148 58.8643L30.9696 59.0678ZM46.1585 53.829L46.1043 53.585L46.0221 53.6033L45.9677 53.6675L46.1585 53.829ZM41.2086 54.2472L41.0473 54.4382L41.0474 54.4383L41.2086 54.2472ZM46.1587 53.829L46.2129 54.073L46.2848 54.0571L46.3366 54.0047L46.1587 53.829ZM47.0457 51.5536L47.2955 51.5435L47.2955 51.5427L47.0457 51.5536ZM45.7359 48.8818L45.8972 48.6908L45.8971 48.6907L45.7359 48.8818ZM36.3145 40.9321L36.1489 41.1195L36.1533 41.1232L36.3145 40.9321ZM36.2999 40.9192L36.4655 40.7318L36.46 40.7272L36.2999 40.9192ZM33.7523 40.1224L33.7731 40.3715L33.7756 40.3713L33.7523 40.1224ZM31.3662 41.3471L31.5573 41.5084L31.5573 41.5083L31.3662 41.3471ZM30.5579 43.9063L30.807 43.8851L30.807 43.8851L30.5579 43.9063ZM31.7844 46.2924L31.9456 46.1013L31.9454 46.1011L31.7844 46.2924ZM34.3857 48.4871L34.5626 48.3105L34.5551 48.3029L34.5469 48.2961L34.3857 48.4871ZM34.3922 48.4905L34.2154 48.6673L34.2228 48.6748L34.2309 48.6815L34.3922 48.4905ZM53.7819 46.8132L53.9732 46.9742L54.1807 46.7277L53.8904 46.588L53.7819 46.8132ZM51.3994 48.0397L51.3781 47.7906L51.3766 47.7908L51.3994 48.0397ZM53.7818 46.8132L53.604 46.6375L53.358 46.8866L53.6734 47.0384L53.7818 46.8132ZM54.6773 44.5456L54.9271 44.5356L54.9271 44.5347L54.6773 44.5456ZM53.3691 41.8721L53.2078 42.0631L53.208 42.0633L53.3691 41.8721ZM48.5876 37.8337L48.7489 37.6427L48.679 37.5837H48.5876V37.8337ZM48.5859 37.8337L48.4247 38.0247L48.4945 38.0837H48.5859V37.8337ZM47.4883 36.9076L47.327 37.0986L47.3271 37.0986L47.4883 36.9076ZM43.9411 33.9125L43.7643 34.0893L43.7717 34.0968L43.7798 34.1035L43.9411 33.9125ZM43.9397 33.9107L43.7225 34.0348L43.7267 34.0417L43.9397 33.9107ZM43.9397 33.9107L44.1569 33.7865L44.1518 33.7783L43.9397 33.9107ZM43.9377 33.9091L43.7763 34.1001L43.8462 34.1591H43.9377V33.9091ZM41.7051 32.0229L41.8664 31.832L41.8661 31.8317L41.7051 32.0229ZM36.7569 32.4458L36.5661 32.2843L36.5658 32.2847L36.7569 32.4458ZM37.1798 37.3924L37.0184 37.5833L37.0188 37.5836L37.1798 37.3924ZM38.3999 38.4195L38.5721 38.2383L38.5667 38.2331L38.5609 38.2283L38.3999 38.4195ZM38.4094 38.4274L38.5598 38.2277L38.5598 38.2277L38.4094 38.4274ZM38.4145 38.4313L38.5723 38.2374L38.5722 38.2373L38.4145 38.4313ZM38.4196 38.4359L38.2428 38.6126L38.2503 38.6201L38.2584 38.6269L38.4196 38.4359ZM47.8427 46.3873L48.0043 46.1965L48.0039 46.1962L47.8427 46.3873ZM48.6266 47.2038L48.4368 47.3665L48.5704 47.5224L48.7493 47.4216L48.6266 47.2038ZM48.8453 47.2348L49.0065 47.0436L49.0059 47.0432L48.8453 47.2348ZM83.21 19.2596L83.4109 19.4083L83.4115 19.4074L83.21 19.2596ZM88.2906 12.3353L88.4921 12.4832L88.4922 12.483L88.2906 12.3353ZM87.9394 10.0524L88.0874 9.85089L88.0871 9.85066L87.9394 10.0524ZM85.6565 10.4035L85.455 10.2556L85.455 10.2556L85.6565 10.4035ZM80.576 17.3277L80.3744 17.1799L80.3743 17.18L80.576 17.3277ZM80.9271 19.6107L80.7791 19.8121L80.7797 19.8126L80.9271 19.6107ZM37.2956 19.2598L37.4975 19.1124L37.4972 19.1119L37.2956 19.2598ZM32.2137 12.3355L32.4153 12.1876L32.4152 12.1874L32.2137 12.3355ZM32.5631 10.054L32.7109 10.2557L32.711 10.2556L32.5631 10.054ZM34.8447 10.4034L35.0462 10.2555L35.0462 10.2554L34.8447 10.4034ZM39.9283 17.3277L39.7268 17.4756L39.7269 17.4758L39.9283 17.3277ZM39.5789 19.6092L39.7266 19.8109L39.7266 19.8109L39.5789 19.6092ZM60.2456 15.4812C61.2866 15.4812 62.1287 14.6391 62.1287 13.5981H61.6287C61.6287 14.363 61.0105 14.9812 60.2456 14.9812V15.4812ZM58.3626 13.5981C58.3626 14.6391 59.2046 15.4812 60.2456 15.4812V14.9812C59.4808 14.9812 58.8626 14.363 58.8626 13.5981H58.3626ZM58.3626 5.00808V13.5981H58.8626V5.00808H58.3626ZM60.2456 3.125C59.2046 3.125 58.3626 3.96705 58.3626 5.00808H58.8626C58.8626 4.2432 59.4808 3.625 60.2456 3.625V3.125ZM62.1287 5.00808C62.1287 3.96707 61.2867 3.125 60.2456 3.125V3.625C61.0105 3.625 61.6287 4.24321 61.6287 5.00808H62.1287ZM62.1287 13.5981V5.00808H61.6287V13.5981H62.1287ZM100.242 78.4672L86.9478 67.2412L86.6253 67.6232L99.9198 78.8492L100.242 78.4672ZM100.189 78.4329L100.189 78.4326L99.9735 78.8838L99.9741 78.8842L100.189 78.4329ZM100.469 81.1208C101.137 80.3262 101.038 79.1381 100.243 78.4675L99.9206 78.8496C100.504 79.3419 100.578 80.2149 100.086 80.7989L100.469 81.1208ZM99.0281 81.7879C99.5636 81.7879 100.095 81.5621 100.468 81.1213L100.087 80.7984C99.813 81.1217 99.4234 81.2879 99.0281 81.2879V81.7879ZM97.8133 81.3433C98.1672 81.6427 98.5993 81.7879 99.0281 81.7879V81.2879C98.7125 81.2879 98.396 81.1813 98.1362 80.9615L97.8133 81.3433ZM84.4727 70.0782L97.8135 81.3434L98.136 80.9614L84.7953 69.6962L84.4727 70.0782ZM70.5095 82.1334L84.7952 70.0782L84.4728 69.6961L70.187 81.7513L70.5095 82.1334ZM62.878 86.38C65.3908 85.6685 67.8913 84.3432 70.5095 82.1334L70.187 81.7513C67.6154 83.9217 65.1771 85.2093 62.7418 85.8989L62.878 86.38ZM81.6136 101.549L62.9703 85.9477L62.6494 86.3312L81.2927 101.932L81.6136 101.549ZM81.8492 104.2C82.5152 103.402 82.4123 102.215 81.6133 101.548L81.2929 101.932C81.8787 102.421 81.9554 103.292 81.4653 103.879L81.8492 104.2ZM80.4032 104.874C80.9412 104.874 81.4762 104.644 81.8488 104.2L81.4657 103.879C81.192 104.205 80.7995 104.374 80.4032 104.374V104.874ZM79.195 104.436C79.5498 104.731 79.9775 104.874 80.4032 104.874V104.374C80.0907 104.374 79.7767 104.269 79.5143 104.051L79.195 104.436ZM58.3361 86.9828L79.1942 104.435L79.5151 104.052L58.6569 86.5993L58.3361 86.9828ZM49.7728 86.1238C52.8762 86.7223 55.736 87.1435 58.5058 87.0409L58.4873 86.5412C55.7767 86.6416 52.9629 86.2298 49.8674 85.6328L49.7728 86.1238ZM28.2322 104.43L49.9814 86.0693L49.6588 85.6873L27.9097 104.047L28.2322 104.43ZM27.0176 104.874C27.4468 104.874 27.8768 104.729 28.2319 104.43L27.91 104.047C27.6479 104.268 27.3328 104.374 27.0176 104.374V104.874ZM25.5787 104.205C25.9497 104.646 26.4816 104.874 27.0176 104.874V104.374C26.6228 104.374 26.2333 104.206 25.9613 103.883L25.5787 104.205ZM25.8016 101.552C25.0059 102.221 24.9071 103.41 25.579 104.205L25.961 103.883C25.4666 103.297 25.5406 102.425 26.1235 101.935L25.8016 101.552ZM48.1497 82.6869L25.8013 101.552L26.1238 101.934L48.4722 83.0689L48.1497 82.6869ZM49.7358 82.2787C49.1674 82.1595 48.5882 82.3175 48.1499 82.6867L48.472 83.0691C48.7979 82.7946 49.2217 82.6818 49.6332 82.7681L49.7358 82.2787ZM68.0794 79.2523C65.0841 81.7809 62.3667 82.9006 59.4782 83.212C56.5769 83.5248 53.487 83.0249 49.7333 82.2782L49.6357 82.7686C53.3855 83.5145 56.5451 84.0312 59.5318 83.7091C62.5312 83.3857 65.3401 82.2191 68.4019 79.6344L68.0794 79.2523ZM82.9217 66.7233L68.0794 79.2523L68.4019 79.6344L83.2442 67.1054L82.9217 66.7233ZM84.0604 64.5054C83.9859 65.378 83.5823 66.1657 82.9217 66.7233L83.2442 67.1054C84.0078 66.4608 84.4731 65.5501 84.5586 64.5479L84.0604 64.5054ZM83.3066 62.1305C83.8661 62.7932 84.1331 63.6353 84.0603 64.5058L84.5586 64.5475C84.6423 63.5461 84.3344 62.5728 83.6887 61.808L83.3066 62.1305ZM81.0921 60.9888C81.9643 61.0632 82.7489 61.4666 83.3063 62.13L83.6891 61.8084C83.0449 61.0416 82.1371 60.5761 81.1346 60.4906L81.0921 60.9888ZM78.7203 61.7376C79.3804 61.1819 80.2133 60.9219 81.0944 60.9889L81.1324 60.4904C80.1259 60.4138 79.1625 60.7118 78.3983 61.3551L78.7203 61.7376ZM78.6998 61.7532L78.7046 61.7498L78.4141 61.3428L78.4093 61.3462L78.6998 61.7532ZM76.0625 61.515C76.7327 62.3094 77.9192 62.4134 78.7158 61.7408L78.3933 61.3587C77.8086 61.8524 76.9375 61.7767 76.4447 61.1926L76.0625 61.515ZM76.2884 58.8617C75.4937 59.5321 75.3919 60.7203 76.0626 61.515L76.4447 61.1925C75.9525 60.6093 76.0269 59.7365 76.6108 59.2439L76.2884 58.8617ZM76.2745 58.8743L76.2728 58.876L76.6264 59.2296L76.6281 59.2279L76.2745 58.8743ZM79.4681 56.1784L76.2901 58.8601L76.6125 59.2422L79.7905 56.5605L79.4681 56.1784ZM79.8579 51.5823C81.015 52.9564 80.8392 55.0199 79.468 56.1785L79.7907 56.5604C81.3726 55.2239 81.5752 52.8454 80.2404 51.2603L79.8579 51.5823ZM77.6453 50.4439C78.5177 50.5183 79.3022 50.9218 79.8578 51.5822L80.2405 51.2603C79.5979 50.4966 78.6902 50.0312 77.6878 49.9457L77.6453 50.4439ZM75.2726 51.1972C75.9318 50.6378 76.7983 50.3771 77.6469 50.444L77.6862 49.9455C76.7127 49.8688 75.714 50.1668 74.9491 50.8159L75.2726 51.1972ZM75.1091 51.2565H75.1108V50.7565H75.1091V51.2565ZM72.6171 50.9752C73.2877 51.7702 74.4763 51.8697 75.2706 51.1974L74.9476 50.8157C74.3641 51.3097 73.4915 51.2363 72.9992 50.6528L72.6171 50.9752ZM72.8377 48.3224C72.0451 48.9945 71.9451 50.1823 72.6174 50.9756L72.9989 50.6523C72.5056 50.0704 72.5784 49.1979 73.1611 48.7037L72.8377 48.3224ZM73.0028 48.5113C72.826 48.3346 72.826 48.3345 72.8261 48.3345C72.8261 48.3345 72.8261 48.3344 72.8262 48.3344C72.8262 48.3343 72.8263 48.3343 72.8263 48.3342C72.8264 48.3341 72.8266 48.334 72.8267 48.3339C72.8269 48.3336 72.8272 48.3334 72.8274 48.3332C72.8279 48.3327 72.8284 48.3322 72.8289 48.3317C72.8299 48.3307 72.831 48.3297 72.8321 48.3286C72.8344 48.3265 72.8369 48.3242 72.8398 48.3218C72.8452 48.3171 72.8531 48.3108 72.863 48.3042C72.8726 48.2978 72.8877 48.2887 72.9078 48.2807C72.9273 48.2728 72.959 48.263 72.9994 48.263V48.763C73.0754 48.763 73.1273 48.7289 73.1404 48.7202C73.151 48.7131 73.1593 48.7064 73.1652 48.7014C73.1682 48.6988 73.1709 48.6964 73.1733 48.6942C73.1744 48.6931 73.1756 48.692 73.1766 48.691C73.1771 48.6905 73.1776 48.69 73.1781 48.6895C73.1784 48.6893 73.1786 48.689 73.1788 48.6888C73.179 48.6887 73.1791 48.6886 73.1792 48.6885C73.1793 48.6884 73.1793 48.6883 73.1794 48.6883C73.1794 48.6883 73.1794 48.6882 73.1795 48.6882C73.1795 48.6882 73.1795 48.6881 73.0028 48.5113ZM75.4607 46.1043L72.8413 48.3205L73.1642 48.7022L75.7836 46.486L75.4607 46.1043ZM75.8521 41.508C77.0108 42.8838 76.8347 44.9454 75.461 46.104L75.7833 46.4862C77.3681 45.1497 77.571 42.7728 76.2346 41.1859L75.8521 41.508ZM73.6319 40.3713C74.5077 40.4442 75.2967 40.8479 75.852 41.5079L76.2346 41.186C75.5917 40.4219 74.6789 39.9567 73.6733 39.873L73.6319 40.3713ZM71.2701 41.1159C71.9272 40.5664 72.772 40.3046 73.6332 40.3714L73.6719 39.8729C72.6845 39.7963 71.7097 40.0965 70.9494 40.7323L71.2701 41.1159ZM71.2784 41.109L71.2866 41.1008L70.933 40.7474L70.9248 40.7555L71.2784 41.109ZM68.6113 40.9022C69.2807 41.6961 70.4691 41.7928 71.2628 41.1234L70.9404 40.7412C70.3563 41.2339 69.4836 41.1612 68.9935 40.5799L68.6113 40.9022ZM68.8305 38.2492C68.0373 38.9199 67.9378 40.1084 68.6118 40.9028L68.993 40.5793C68.498 39.9958 68.5713 39.1232 69.1533 38.631L68.8305 38.2492ZM68.8168 38.2616L68.8151 38.2633L69.1687 38.6169L69.1704 38.6152L68.8168 38.2616ZM70.0668 37.2024L68.8321 38.2476L69.1551 38.6292L70.3898 37.584L70.0668 37.2024ZM70.4584 32.6062C71.6153 33.9785 71.4396 36.0435 70.067 37.2022L70.3896 37.5843C71.9729 36.2477 72.1756 33.8675 70.8406 32.2839L70.4584 32.6062ZM68.2427 31.4677C69.1162 31.5405 69.9021 31.9454 70.4583 32.606L70.8408 32.284C70.1979 31.5205 69.2887 31.0531 68.2842 30.9694L68.2427 31.4677ZM65.862 32.2166C66.526 31.659 67.3648 31.3857 68.2402 31.4674L68.2867 30.9696C67.2746 30.8751 66.304 31.1925 65.5404 31.8338L65.862 32.2166ZM56.314 40.2788L65.8625 32.2162L65.5399 31.8342L55.9914 39.8968L56.314 40.2788ZM58.1842 44.4004C58.1147 42.7257 57.4368 41.1541 56.3394 39.9216L55.966 40.2541C56.9916 41.406 57.6202 42.8692 57.6847 44.4211L58.1842 44.4004ZM56.3535 49.2015C57.6123 47.9493 58.2605 46.2423 58.1842 44.4004L57.6847 44.4211C57.7554 46.1298 57.1555 47.6985 56.0009 48.847L56.3535 49.2015ZM51.691 51.545C53.5618 51.3862 55.259 50.5123 56.369 49.1846L55.9854 48.8639C54.9655 50.0838 53.3939 50.8987 51.6487 51.0468L51.691 51.545ZM51.082 51.5721C51.2831 51.5721 51.4885 51.5637 51.6928 51.5449L51.647 51.047C51.4593 51.0642 51.2693 51.0721 51.082 51.0721V51.5721ZM50.4121 51.5146C50.6207 51.542 50.8474 51.5721 51.082 51.5721V51.0721C50.8855 51.0721 50.6909 51.0469 50.4772 51.0188L50.4121 51.5146ZM50.2467 51.4934C50.3014 51.5 50.3561 51.5072 50.4121 51.5146L50.4772 51.0188C50.4216 51.0115 50.3646 51.004 50.3073 50.9971L50.2467 51.4934ZM50.535 51.2801C50.5288 51.2492 50.527 51.2384 50.5266 51.2304L50.0274 51.2601C50.0303 51.3086 50.0398 51.3535 50.0448 51.3786L50.535 51.2801ZM50.5351 51.2804L50.535 51.2803L50.0448 51.3784L50.0448 51.3785L50.5351 51.2804ZM50.5528 51.4023C50.5499 51.3521 50.5402 51.3061 50.535 51.2802L50.0448 51.3787C50.0511 51.4101 50.0531 51.4218 50.0536 51.4311L50.5528 51.4023ZM48.7365 56.2163C49.9883 54.9578 50.6327 53.2459 50.553 51.4059L50.0534 51.4275C50.1274 53.1346 49.5308 54.7087 48.382 55.8637L48.7365 56.2163ZM43.4933 58.5974C45.4657 58.5974 47.4138 57.7787 48.75 56.2016L48.3685 55.8784C47.1339 57.3355 45.3293 58.0974 43.4933 58.0974V58.5974ZM43.4885 58.5974H43.4933V58.0974H43.4885V58.5974ZM42.2065 63.9566C43.5801 62.3268 44.0512 60.2565 43.7353 58.3074L43.2417 58.3874C43.5362 60.2046 43.0963 62.125 41.8242 63.6343L42.2065 63.9566ZM38.4994 66.2302C39.8962 65.892 41.2096 65.1386 42.2065 63.9566L41.8242 63.6343C40.9009 64.729 39.683 65.4291 38.3818 65.7442L38.4994 66.2302ZM39.4964 68.6398C39.4134 67.6463 39.1185 66.7131 38.6604 65.868L38.2208 66.1063C38.648 66.8943 38.9212 67.7609 38.9981 68.6814L39.4964 68.6398ZM37.8655 73.7589C39.0746 72.3314 39.654 70.5131 39.4964 68.6397L38.9982 68.6816C39.1447 70.4234 38.6068 72.1101 37.484 73.4357L37.8655 73.7589ZM33.0971 76.2191C34.9671 76.0601 36.665 75.1861 37.866 73.7583L37.4834 73.4364C36.3688 74.7615 34.7938 75.5731 33.0547 75.7209L33.0971 76.2191ZM32.4897 76.2462C32.6923 76.2462 32.8953 76.236 33.0966 76.2192L33.0551 75.7209C32.8645 75.7368 32.6756 75.7462 32.4897 75.7462V76.2462ZM27.9763 74.5951C29.251 75.6702 30.835 76.2462 32.4897 76.2462V75.7462C30.9529 75.7462 29.4831 75.2118 28.2987 74.2129L27.9763 74.5951ZM22.6232 70.0814L27.9763 74.5951L28.2986 74.2129L22.9455 69.6991L22.6232 70.0814ZM9.59877 81.3448L22.9456 70.0813L22.6231 69.6992L9.2763 80.9627L9.59877 81.3448ZM8.38592 81.7875C8.81489 81.7875 9.24491 81.6422 9.59838 81.3451L9.27669 80.9623C9.01644 81.1811 8.70135 81.2875 8.38592 81.2875V81.7875ZM6.94407 81.1192C7.31666 81.5597 7.84823 81.7875 8.38592 81.7875V81.2875C7.9894 81.2875 7.59963 81.12 7.3258 80.7963L6.94407 81.1192ZM7.1699 78.4656C6.37339 79.1361 6.27342 80.3246 6.94388 81.119L7.32599 80.7965C6.83356 80.213 6.9071 79.3404 7.49191 78.8481L7.1699 78.4656ZM20.4712 67.2397L7.16966 78.4658L7.49215 78.8479L20.7937 67.6218L20.4712 67.2397ZM21.2237 59.7001C19.3139 61.9604 19.0953 65.083 20.4119 67.5486L20.853 67.313C19.6282 65.0196 19.8341 62.1195 21.6056 60.0228L21.2237 59.7001ZM24.5476 57.5122C23.2931 57.893 22.1297 58.6248 21.2235 59.7004L21.6058 60.0226C22.4472 59.024 23.5269 58.3446 24.6929 57.9906L24.5476 57.5122ZM24.6693 49.1554C22.5232 51.7027 22.5038 55.3411 24.4201 57.9012L24.8204 57.6016C23.0399 55.2229 23.0592 51.8424 25.0517 49.4776L24.6693 49.1554ZM28.2021 46.9096C26.8694 47.2687 25.6262 48.0223 24.6695 49.1552L25.0515 49.4778C25.94 48.4257 27.094 47.726 28.3322 47.3924L28.2021 46.9096ZM27.0528 44.2034C27.1476 45.3129 27.491 46.3594 28.0537 47.2812L28.4805 47.0207C27.9587 46.1659 27.6393 45.1942 27.551 44.1609L27.0528 44.2034ZM28.6785 39.081C27.4727 40.5118 26.8955 42.3312 27.0528 44.2031L27.551 44.1612C27.4048 42.4205 27.9408 40.7323 29.0608 39.4032L28.6785 39.081ZM33.0039 36.6724C31.3108 36.9228 29.7895 37.7668 28.6787 39.0807L29.0606 39.4035C30.0926 38.1826 31.5041 37.3997 33.0771 37.167L33.0039 36.6724ZM34.0695 30.1789C32.4196 32.1354 32.0274 34.7398 32.8041 37.0009L33.2769 36.8385C32.5547 34.7358 32.9204 32.3171 34.4517 30.5012L34.0695 30.1789ZM43.9736 29.337C41.0084 26.8411 36.5675 27.2221 34.0696 30.1787L34.4515 30.5014C36.7716 27.7552 40.8976 27.4013 43.6516 29.7196L43.9736 29.337ZM45.6348 30.74L43.9739 29.3373L43.6513 29.7193L45.3122 31.122L45.6348 30.74ZM46.3518 28.1317C45.7697 29.0014 45.4136 29.9394 45.2282 30.8828L45.7188 30.9792C45.8928 30.0936 46.2259 29.2188 46.7673 28.4098L46.3518 28.1317ZM55.8426 25.965C51.7283 23.8289 48.1023 25.5122 46.3517 28.1319L46.7674 28.4097C48.3936 25.9763 51.7504 24.4038 55.6122 26.4088L55.8426 25.965ZM63.4531 29.5157L55.8331 25.9603L55.6217 26.4134L63.2417 29.9688L63.4531 29.5157ZM63.4376 29.3389L63.1861 29.5512L63.5087 29.9332L63.7602 29.7209L63.4376 29.3389ZM68.5654 27.7148C66.6812 27.5505 64.8681 28.1337 63.4378 29.3387L63.7599 29.7211C65.0894 28.6011 66.7712 28.0602 68.5219 28.213L68.5654 27.7148ZM73.342 30.1791C72.1376 28.7477 70.4382 27.8737 68.5648 27.7148L68.5225 28.213C70.2651 28.3608 71.8415 29.1724 72.9594 30.501L73.342 30.1791ZM74.6086 37.0007C75.3835 34.7397 74.9916 32.1354 73.3418 30.1789L72.9596 30.5012C74.4908 32.317 74.8563 34.7358 74.1356 36.8386L74.6086 37.0007ZM78.7339 39.079C77.6264 37.7683 76.1017 36.9232 74.4087 36.6723L74.3354 37.1669C75.9086 37.4 77.3234 38.1844 78.352 39.4017L78.7339 39.079ZM79.3571 47.2812C80.8893 44.772 80.7339 41.4552 78.7342 39.0794L78.3516 39.4013C80.2086 41.6075 80.3541 44.6891 78.9304 47.0206L79.3571 47.2812ZM82.7416 49.1571C81.8104 48.0516 80.5838 47.2772 79.2083 46.9094L79.0792 47.3924C80.356 47.7338 81.4941 48.4522 82.3592 49.4792L82.7416 49.1571ZM82.9921 57.9028C84.9071 55.3426 84.8855 51.7043 82.7417 49.1572L82.3591 49.4791C84.3497 51.8441 84.3709 55.2247 82.5918 57.6033L82.9921 57.9028ZM86.1889 59.7053C85.305 58.6538 84.1547 57.9015 82.8639 57.5136L82.72 57.9925C83.9176 58.3524 84.9849 59.0501 85.8062 60.0271L86.1889 59.7053ZM87.8179 64.8238C87.9751 62.9519 87.3962 61.1305 86.1883 59.7046L85.8068 60.0278C86.9281 61.3516 87.4658 63.0414 87.3196 64.782L87.8179 64.8238ZM87.0069 67.5504C87.4535 66.7177 87.7367 65.7963 87.8179 64.8237L87.3196 64.7821C87.2443 65.6842 86.9817 66.5395 86.5662 67.314L87.0069 67.5504ZM49.6073 34.0918C49.0581 33.6283 48.8257 32.9711 48.8321 32.2662C48.8386 31.5577 49.0879 30.8163 49.484 30.2249L49.0686 29.9467C48.6236 30.611 48.3396 31.4464 48.3322 32.2616C48.3247 33.0805 48.5976 33.8939 49.2848 34.4739L49.6073 34.0918ZM49.2502 34.4382L49.2503 34.4383L49.6418 34.1274L49.6417 34.1272L49.2502 34.4382ZM49.6961 34.2541C49.6961 34.254 49.696 34.2534 49.6959 34.2526C49.6958 34.2518 49.6956 34.2505 49.6954 34.249C49.6949 34.246 49.6942 34.2411 49.6929 34.2351C49.6906 34.2236 49.6858 34.2041 49.6756 34.1816C49.6515 34.1282 49.6077 34.081 49.5474 34.0542L49.3445 34.5112C49.2861 34.4853 49.2433 34.4393 49.2198 34.3872C49.2024 34.3486 49.1994 34.3117 49.2004 34.3192L49.6961 34.2541ZM49.6912 34.2284C49.6934 34.2372 49.6946 34.2444 49.6953 34.2484C49.6959 34.2521 49.6962 34.2552 49.6962 34.2546L49.2003 34.3187C49.2003 34.3188 49.2004 34.3198 49.2006 34.3209C49.2008 34.3221 49.201 34.324 49.2014 34.3263C49.2021 34.3307 49.2034 34.3383 49.2056 34.3475L49.6912 34.2284ZM49.6434 34.132C49.6755 34.1716 49.6871 34.211 49.6916 34.2297L49.2053 34.3462C49.21 34.3658 49.222 34.406 49.2546 34.4464L49.6434 34.132ZM49.6228 34.1088L49.6112 34.0989L49.2868 34.4794L49.2984 34.4893L49.6228 34.1088ZM53.8678 37.6909L49.6218 34.108L49.2993 34.4901L53.5454 38.073L53.8678 37.6909ZM60.4386 31.8707L53.5453 37.691L53.8679 38.073L60.7612 32.2528L60.4386 31.8707ZM54.1807 29.3423L60.4942 32.2883L60.7056 31.8352L54.3921 28.8892L54.1807 29.3423ZM49.4841 30.2247C49.6786 29.9336 50.1453 29.3459 50.9076 29.0135C51.6563 28.687 52.7262 28.5907 54.1716 29.3379L54.4012 28.8937C52.8353 28.0843 51.6075 28.1628 50.7077 28.5552C49.8213 28.9418 49.2886 29.6174 49.0684 29.9469L49.4841 30.2247ZM34.9915 71.3267C34.4355 71.9888 33.6514 72.3918 32.7811 72.4649L32.823 72.9631C33.8239 72.8791 34.7315 72.4138 35.3744 71.6482L34.9915 71.3267ZM35.14 71.7337L35.1401 71.7338L35.2258 71.2412L35.2257 71.2411L35.14 71.7337ZM35.7472 68.951C35.8197 69.8242 35.5513 70.665 34.992 71.326L35.3737 71.6489C36.0194 70.8859 36.3288 69.9138 36.2455 68.9097L35.7472 68.951ZM34.6105 66.7356C35.2709 67.2915 35.6744 68.0772 35.7472 68.9511L36.2455 68.9096C36.1618 67.9053 35.6964 66.9961 34.9326 66.3531L34.6105 66.7356ZM28.6626 61.7202L34.6104 66.7354L34.9327 66.3532L28.9849 61.3379L28.6626 61.7202ZM24.1028 62.1293C25.2519 60.7649 27.2888 60.5841 28.6644 61.7217L28.9831 61.3364C27.3968 60.0245 25.0468 60.2322 23.7204 61.8073L24.1028 62.1293ZM24.4898 66.7276C23.1164 65.5623 22.9427 63.5001 24.1024 62.1298L23.7208 61.8068C22.3818 63.3889 22.5837 65.7661 24.1663 67.1089L24.4898 66.7276ZM30.4057 71.7145L24.4892 66.7271L24.1669 67.1094L30.0835 72.0968L30.4057 71.7145ZM32.7796 72.465C31.9017 72.544 31.066 72.2716 30.4058 71.7145L30.0833 72.0967C30.8439 72.7385 31.8115 73.0541 32.8244 72.963L32.7796 72.465ZM39.3308 61.526C38.1721 62.8986 36.1116 63.0746 34.7379 61.9188L34.416 62.3014C36.0009 63.6349 38.3763 63.4318 39.7128 61.8485L39.3308 61.526ZM39.3109 61.5529L39.3109 61.553L39.7327 61.8215L39.7328 61.8214L39.3109 61.5529ZM38.9378 56.9335C40.3119 58.0921 40.4863 60.1554 39.3307 61.526L39.713 61.8483C41.0466 60.2665 40.8452 57.8878 39.2601 56.5512L38.9378 56.9335ZM32.1586 51.206L38.9376 56.9333L39.2603 56.5514L32.4813 50.824L32.1586 51.206ZM32.2348 51.2491C32.2386 51.2504 32.2272 51.2469 32.2146 51.2412C32.2011 51.2351 32.1722 51.2207 32.1434 51.192L32.4965 50.838C32.4662 50.8078 32.4354 50.7923 32.4199 50.7853C32.4114 50.7815 32.4044 50.7788 32.4003 50.7773C32.3964 50.7759 32.3929 50.7748 32.3929 50.7748L32.2348 51.2491ZM32.1303 51.1853C32.1595 51.2146 32.1893 51.2302 32.2061 51.2379C32.2148 51.2419 32.2222 51.2447 32.2267 51.2463C32.231 51.2479 32.2347 51.2491 32.2348 51.2491L32.3928 50.7748C32.3891 50.7735 32.401 50.7772 32.4142 50.7833C32.4287 50.7899 32.4563 50.8042 32.4838 50.8318L32.1303 51.1853ZM32.1285 51.1836L32.1303 51.1853L32.4838 50.8318L32.4821 50.8301L32.1285 51.1836ZM29.7665 50.4442C30.6409 50.3726 31.4833 50.6384 32.1438 51.1976L32.4669 50.816C31.7032 50.1695 30.7293 49.8637 29.7257 49.9459L29.7665 50.4442ZM27.5481 51.5846C28.1072 50.9223 28.8949 50.5189 29.7675 50.4441L29.7248 49.946C28.7227 50.0318 27.812 50.4968 27.166 51.262L27.5481 51.5846ZM27.9415 56.1807C26.5683 55.0184 26.3928 52.9564 27.5483 51.5843L27.1658 51.2623C25.8322 52.8459 26.0356 55.2226 27.6184 56.5623L27.9415 56.1807ZM31.1175 58.8604L27.9412 56.1804L27.6187 56.5626L30.7951 59.2426L31.1175 58.8604ZM31.1348 58.8764L31.1331 58.8747L30.7795 59.2283L30.7812 59.23L31.1348 58.8764ZM31.1754 58.9277C31.1753 58.9275 31.1701 58.919 31.1633 58.9097C31.1559 58.8995 31.1445 58.8853 31.1285 58.8704L30.7875 59.236C30.7739 59.2234 30.7646 59.2115 30.759 59.2038C30.7541 59.1971 30.7505 59.1912 30.7519 59.1935L31.1754 58.9277ZM31.1614 58.9082C31.167 58.9151 31.1709 58.9209 31.173 58.924C31.1748 58.9267 31.1762 58.929 31.1755 58.9278L30.7519 59.1934C30.7521 59.1938 30.7544 59.1976 30.7573 59.2018C30.7603 59.2063 30.7653 59.2135 30.772 59.2218L31.1614 58.9082ZM31.1148 58.8643C31.1371 58.8802 31.1523 58.8969 31.1614 58.9082L30.772 59.2218C30.7828 59.2353 30.7998 59.2538 30.8244 59.2713L31.1148 58.8643ZM34.7382 61.919L31.1308 58.8767L30.8084 59.2589L34.4158 62.3013L34.7382 61.919ZM45.9677 53.6675C44.8056 55.0405 42.7455 55.2163 41.3698 54.0561L41.0474 54.4383C42.6345 55.7767 45.0095 55.5735 46.3494 53.9905L45.9677 53.6675ZM46.1045 53.5849L46.1043 53.585L46.2128 54.0731L46.2129 54.073L46.1045 53.5849ZM46.7959 51.5636C46.8275 52.3487 46.5716 53.0551 45.9808 53.6533L46.3366 54.0047C47.0265 53.306 47.3326 52.4643 47.2955 51.5435L46.7959 51.5636ZM45.5745 49.0728C46.2983 49.6841 46.7547 50.6179 46.796 51.5644L47.2955 51.5427C47.2482 50.4574 46.7282 49.3927 45.8972 48.6908L45.5745 49.0728ZM36.1533 41.1232L45.5746 49.0728L45.8971 48.6907L36.4757 40.741L36.1533 41.1232ZM36.1343 41.1065L36.149 41.1194L36.48 40.7448L36.4654 40.7318L36.1343 41.1065ZM33.7756 40.3713C34.6291 40.2912 35.4796 40.5604 36.1397 41.1111L36.46 40.7272C35.6994 40.0926 34.7174 39.7807 33.7289 39.8735L33.7756 40.3713ZM31.5573 41.5083C32.1147 40.8477 32.901 40.4443 33.7731 40.3715L33.7315 39.8732C32.7289 39.9569 31.8194 40.4224 31.1752 41.1859L31.5573 41.5083ZM30.807 43.8851C30.7326 43.0132 31.001 42.1675 31.5573 41.5084L31.1752 41.1859C30.5325 41.9475 30.2232 42.9247 30.3088 43.9276L30.807 43.8851ZM31.9454 46.1011C31.285 45.5452 30.8814 44.7593 30.807 43.8851L30.3088 43.9275C30.3942 44.9315 30.8595 45.8406 31.6234 46.4836L31.9454 46.1011ZM34.5469 48.2961L31.9456 46.1013L31.6232 46.4834L34.2245 48.6782L34.5469 48.2961ZM34.569 48.3138C34.5421 48.2869 34.515 48.2719 34.499 48.2642C34.4908 48.2603 34.484 48.2575 34.4799 48.256C34.4778 48.2551 34.4761 48.2545 34.475 48.2541C34.4739 48.2537 34.473 48.2534 34.473 48.2534C34.4722 48.2531 34.475 48.2541 34.4782 48.2553C34.4817 48.2567 34.4879 48.2592 34.4956 48.2628C34.5105 48.27 34.5365 48.2844 34.5626 48.3105L34.2088 48.6638C34.2357 48.6907 34.2628 48.7057 34.2788 48.7134C34.287 48.7174 34.2939 48.7201 34.2979 48.7217C34.3001 48.7225 34.3018 48.7232 34.3029 48.7236C34.3039 48.7239 34.3048 48.7243 34.3049 48.7243C34.3057 48.7246 34.3029 48.7236 34.2997 48.7224C34.2962 48.721 34.29 48.7185 34.2824 48.7148C34.2675 48.7077 34.2414 48.6934 34.2154 48.6673L34.569 48.3138ZM41.3699 54.0562L34.5535 48.2995L34.2309 48.6815L41.0473 54.4382L41.3699 54.0562ZM53.5907 46.6522C53.0346 47.3128 52.2503 47.7162 51.3781 47.7906L51.4206 48.2888C52.423 48.2033 53.3303 47.7379 53.9732 46.9742L53.5907 46.6522ZM53.6734 47.0384L53.6735 47.0385L53.8904 46.588L53.8903 46.5879L53.6734 47.0384ZM54.4275 44.5555C54.4584 45.3328 54.2006 46.0333 53.604 46.6375L53.9597 46.9888C54.6531 46.2866 54.9635 45.452 54.9271 44.5356L54.4275 44.5555ZM53.208 42.0633C53.9312 42.6726 54.3863 43.6061 54.4275 44.5564L54.9271 44.5347C54.8798 43.4465 54.3618 42.3815 53.5302 41.6809L53.208 42.0633ZM48.4263 38.0247L53.2078 42.0631L53.5304 41.6811L48.7489 37.6427L48.4263 38.0247ZM48.5859 38.0837H48.5876V37.5837H48.5859V38.0837ZM47.3271 37.0986L48.4247 38.0247L48.7471 37.6426L47.6495 36.7165L47.3271 37.0986ZM43.7798 34.1035L47.327 37.0986L47.6496 36.7165L44.1023 33.7215L43.7798 34.1035ZM43.7267 34.0417C43.7291 34.0455 43.742 34.067 43.7643 34.0893L44.1178 33.7358C44.1389 33.7568 44.151 33.7771 44.1527 33.7798L43.7267 34.0417ZM43.7226 34.0347L43.7227 34.0348L44.1568 33.7867L44.1567 33.7866L43.7226 34.0347ZM43.9377 34.1591C43.9116 34.1591 43.8809 34.155 43.8486 34.1426C43.816 34.13 43.7902 34.1123 43.7708 34.0946C43.7527 34.0782 43.741 34.0626 43.7355 34.0549C43.7304 34.0477 43.7264 34.0411 43.7276 34.043L44.1518 33.7783C44.1518 33.7783 44.1517 33.7783 44.1517 33.7783C44.1517 33.7782 44.1517 33.7782 44.1516 33.7781C44.1515 33.778 44.1514 33.7778 44.1513 33.7775C44.1509 33.777 44.1504 33.7762 44.1497 33.7751C44.1485 33.7732 44.1461 33.7696 44.1431 33.7652C44.1373 33.7571 44.1253 33.7412 44.1069 33.7245C44.0872 33.7066 44.0611 33.6886 44.0281 33.6759C43.9954 33.6633 43.9642 33.6591 43.9377 33.6591V34.1591ZM41.5438 32.2139L43.7763 34.1001L44.099 33.7182L41.8664 31.832L41.5438 32.2139ZM36.9477 32.6073C38.1084 31.2359 40.172 31.0587 41.5441 32.2142L41.8661 31.8317C40.2824 30.498 37.9041 30.7033 36.5661 32.2843L36.9477 32.6073ZM37.3412 37.2015C35.9682 36.0409 35.7927 33.9774 36.948 32.607L36.5658 32.2847C35.232 33.8667 35.4354 36.2452 37.0184 37.5833L37.3412 37.2015ZM38.5609 38.2283L37.3408 37.2011L37.0188 37.5836L38.2389 38.6108L38.5609 38.2283ZM38.5598 38.2277C38.5578 38.2262 38.5593 38.2273 38.5613 38.2288C38.5637 38.2308 38.5676 38.234 38.5721 38.2383L38.2276 38.6007C38.2426 38.615 38.2567 38.6253 38.259 38.6271L38.5598 38.2277ZM38.5722 38.2373C38.5663 38.2325 38.5608 38.2284 38.5598 38.2277L38.259 38.6271C38.2615 38.6289 38.2593 38.6273 38.2567 38.6252L38.5722 38.2373ZM38.5964 38.2591C38.5872 38.2499 38.5788 38.2427 38.5723 38.2374L38.2567 38.6252C38.2536 38.6227 38.2486 38.6184 38.2428 38.6126L38.5964 38.2591ZM48.0039 46.1962L38.5808 38.2448L38.2584 38.6269L47.6815 46.5783L48.0039 46.1962ZM48.8164 47.0411C48.5721 46.7561 48.3106 46.456 48.0043 46.1965L47.6811 46.578C47.9532 46.8085 48.1911 47.0799 48.4368 47.3665L48.8164 47.0411ZM49.0059 47.0432C48.9387 46.9868 48.8562 46.9425 48.759 46.9316C48.6603 46.9204 48.5732 46.9469 48.5038 46.986L48.7493 47.4216C48.7488 47.4219 48.7439 47.4245 48.7352 47.4266C48.7259 47.4288 48.7148 47.4297 48.7032 47.4284C48.6786 47.4257 48.672 47.4157 48.6847 47.4263L49.0059 47.0432ZM51.3766 47.7908C50.5019 47.871 49.6649 47.5987 49.0065 47.0436L48.6842 47.4259C49.443 48.0657 50.4121 48.3813 51.4222 48.2887L51.3766 47.7908ZM83.0091 19.1108C82.7363 19.4791 82.3169 19.6757 81.8906 19.6757V20.1757C82.4701 20.1757 83.0407 19.9082 83.4109 19.4083L83.0091 19.1108ZM88.089 12.1874L83.0084 19.1117L83.4115 19.4074L88.4921 12.4832L88.089 12.1874ZM87.7914 10.2539C88.407 10.706 88.5398 11.5721 88.0889 12.1875L88.4922 12.483C89.1062 11.645 88.9253 10.4664 88.0874 9.85089L87.7914 10.2539ZM85.8581 10.5514C86.3089 9.93716 87.172 9.8004 87.7918 10.2541L88.0871 9.85066C87.2439 9.23333 86.0684 9.41977 85.455 10.2556L85.8581 10.5514ZM80.7775 17.4756L85.8581 10.5514L85.455 10.2556L80.3744 17.1799L80.7775 17.4756ZM81.0751 19.4092C80.4595 18.957 80.3267 18.0909 80.7776 17.4755L80.3743 17.18C79.7603 18.018 79.9412 19.1967 80.7791 19.8121L81.0751 19.4092ZM81.8906 19.6757C81.6072 19.6757 81.3212 19.5888 81.0744 19.4087L80.7797 19.8126C81.1147 20.0571 81.5045 20.1757 81.8906 20.1757V19.6757ZM37.0937 19.4072C37.4617 19.9112 38.0349 20.1759 38.6137 20.1759V19.6759C38.186 19.6759 37.7664 19.4807 37.4975 19.1124L37.0937 19.4072ZM32.0122 12.4834L37.0941 19.4077L37.4972 19.1119L32.4153 12.1876L32.0122 12.4834ZM32.4154 9.85233C31.5771 10.4665 31.3963 11.6457 32.0123 12.4836L32.4152 12.1874C31.9628 11.5721 32.0957 10.7064 32.7109 10.2557L32.4154 9.85233ZM35.0462 10.2554C34.4321 9.41931 33.2551 9.23649 32.4153 9.8524L32.711 10.2556C33.328 9.80311 34.1923 9.93747 34.6432 10.5514L35.0462 10.2554ZM40.1298 17.1797L35.0462 10.2555L34.6431 10.5514L39.7268 17.4756L40.1298 17.1797ZM39.7266 19.8109C40.5649 19.1966 40.7457 18.0175 40.1297 17.1796L39.7269 17.4758C40.1792 18.0911 40.0463 18.9568 39.4311 19.4075L39.7266 19.8109ZM38.6137 20.1759C38.9999 20.1759 39.3902 20.0572 39.7266 19.8109L39.4312 19.4075C39.1831 19.5892 38.897 19.6759 38.6137 19.6759V20.1759Z" fill="#110326"/>
</g>
</g>
</svg>
