<svg xmlns="http://www.w3.org/2000/svg" width="108" height="108" fill="none"><g fill="#110326"><path fill-rule="evenodd" d="M61.879 13.598c0 .903-.73 1.633-1.633 1.633s-1.633-.73-1.633-1.633v-8.59c0-.903.73-1.633 1.633-1.633s1.633.73 1.633 1.633v8.59Zm24.908 53.834 13.294 11.226h.001c.689.582.776 1.612.195 2.302a1.628 1.628 0 0 1-1.249.578c-.372 0-.746-.126-1.053-.386L84.634 69.887 70.348 81.942c-2.595 2.19-5.064 3.497-7.538 4.197l18.643 15.601a1.632 1.632 0 1 1-2.098 2.504L58.496 86.791c-2.74.102-5.576-.315-8.676-.913l-21.75 18.36a1.626 1.626 0 0 1-2.3-.194 1.631 1.631 0 0 1 .193-2.301L48.31 82.878a1.613 1.613 0 0 1 1.373-.355c7.504 1.493 12.5 2.034 18.557-3.08l14.842-12.529a3.49 3.49 0 0 0 1.227-2.387 3.486 3.486 0 0 0-.812-2.558 3.472 3.472 0 0 0-2.385-1.23 3.502 3.502 0 0 0-2.554.807l-.004.004a1.633 1.633 0 0 1-2.105-2.497l.001-.002 3.178-2.681a3.52 3.52 0 0 0 .42-4.949 3.473 3.473 0 0 0-2.382-1.226 3.534 3.534 0 0 0-2.556.812h-.002A1.633 1.633 0 0 1 73 48.513l.004-.002 2.62-2.216a3.517 3.517 0 0 0 .42-4.948 3.476 3.476 0 0 0-2.39-1.225 3.523 3.523 0 0 0-2.543.802l-.008.008a1.632 1.632 0 0 1-2.11-2.492l.002-.002 1.234-1.045a3.52 3.52 0 0 0 .422-4.948 3.472 3.472 0 0 0-2.387-1.227 3.454 3.454 0 0 0-2.562.807l-9.548 8.063c1.061 1.192 1.714 2.71 1.782 4.323.073 1.775-.551 3.413-1.758 4.613-1.065 1.274-2.7 2.118-4.507 2.272a6.452 6.452 0 0 1-.588.026c-.216 0-.426-.028-.637-.055l-.168-.022c.002.029.007.056.013.084a.62.62 0 0 1 .013.088c.077 1.773-.543 3.416-1.744 4.623-1.285 1.517-3.161 2.307-5.066 2.307h-.005c.306 1.883-.15 3.879-1.473 5.448a6.712 6.712 0 0 1-3.574 2.192c.442.817.726 1.717.806 2.674a6.712 6.712 0 0 1-1.572 4.936 6.711 6.711 0 0 1-4.6 2.373 6.716 6.716 0 0 1-4.938-1.566l-5.353-4.514L9.438 81.154c-.307.258-.68.383-1.052.383a1.632 1.632 0 0 1-1.055-2.88L20.633 67.43c-1.271-2.38-1.059-5.391.782-7.57a6.733 6.733 0 0 1 3.205-2.11c-1.848-2.469-1.829-5.978.24-8.434a6.741 6.741 0 0 1 3.407-2.166 6.784 6.784 0 0 1-.965-2.969 6.738 6.738 0 0 1 1.568-4.94 6.714 6.714 0 0 1 4.17-2.322 6.78 6.78 0 0 1 1.22-6.58c2.41-2.851 6.693-3.219 9.553-.812l1.66 1.403c.18-.915.525-1.82 1.087-2.66 1.688-2.527 5.18-4.155 9.167-2.084l7.62 3.555.252-.212a6.706 6.706 0 0 1 4.945-1.566 6.72 6.72 0 0 1 4.607 2.376 6.784 6.784 0 0 1 1.221 6.58 6.722 6.722 0 0 1 4.17 2.32 6.797 6.797 0 0 1 .602 7.91 6.701 6.701 0 0 1 3.406 2.168c2.068 2.456 2.089 5.966.242 8.435a6.692 6.692 0 0 1 3.206 2.113 6.718 6.718 0 0 1 1.57 4.937 6.736 6.736 0 0 1-.781 2.63Zm-37.51-37.346c-.842 1.256-1.067 3.153.169 4.197.002 0 .002.002.002.004l.001.002.012.01 4.246 3.583 6.893-5.82-6.314-2.946c-3.01-1.557-4.595.35-5.01.97ZM32.801 72.714a3.462 3.462 0 0 0 2.38-1.227 3.48 3.48 0 0 0 .814-2.557 3.47 3.47 0 0 0-1.224-2.386l-5.948-5.015a3.504 3.504 0 0 0-4.912.44 3.519 3.519 0 0 0 .416 4.95l5.917 4.987c.71.6 1.612.893 2.557.808Zm1.775-10.604a3.517 3.517 0 0 0 4.945-.423 3.516 3.516 0 0 0-.423-4.945l-6.779-5.727a.014.014 0 0 0-.006-.003c-.003 0-.005-.002-.007-.004l-.002-.001a3.487 3.487 0 0 0-2.559-.812 3.492 3.492 0 0 0-2.389 1.228 3.522 3.522 0 0 0 .423 4.948l3.176 2.68.002.002.006.008.003.004.003.003 3.607 3.042Zm6.632-7.863a3.518 3.518 0 0 0 4.95-.418 2.96 2.96 0 0 0 .887-2.275 3.768 3.768 0 0 0-1.31-2.672l-9.421-7.95-.015-.013a3.473 3.473 0 0 0-2.548-.797 3.487 3.487 0 0 0-3.194 3.784c.08.94.514 1.787 1.226 2.386l2.602 2.195c.001.002.005.002.006.003l6.817 5.757Zm10.19-6.207a3.474 3.474 0 0 0 2.383-1.227c.645-.653.929-1.42.895-2.267a3.76 3.76 0 0 0-1.308-2.674l-4.781-4.038h-.002l-1.098-.926-3.547-2.995-.001-.002-.002-.002-2.233-1.886a3.523 3.523 0 0 0-4.948.423 3.52 3.52 0 0 0 .423 4.946l1.22 1.027c.003.004.006.006.01.008a.086.086 0 0 1 .01.009l9.423 7.951c.289.245.539.531.784.817.067-.038.138-.036.218.03a3.444 3.444 0 0 0 2.554.806Zm30.492-28.114a1.64 1.64 0 0 0 1.319-.666l5.08-6.925a1.633 1.633 0 1 0-2.634-1.932l-5.08 6.925a1.635 1.635 0 0 0 1.315 2.598Zm-43.277 0c-.503 0-1-.23-1.318-.666l-5.082-6.925a1.631 1.631 0 1 1 2.63-1.932l5.084 6.925a1.631 1.631 0 0 1-1.314 2.598Z" clip-rule="evenodd"/><path d="m100.081 78.658-.161.191.024.021.03.014.107-.226ZM86.787 67.432l-.22-.118-.096.179.154.13.162-.19Zm13.295 11.227.161-.192-.025-.02-.029-.014-.107.225Zm.195 2.3.191.162h.001l-.192-.161Zm-2.302.193.161-.19-.161.19ZM84.634 69.887l.161-.19-.16-.137-.162.136.161.191ZM70.348 81.942l-.161-.19.161.19ZM62.81 86.14l-.068-.24-.455.129.362.303.16-.192Zm18.643 15.601-.16.192.16-.192Zm.204 2.3.192.16-.192-.16Zm-2.302.204-.16.191v.001l.16-.192ZM58.496 86.791l.16-.192-.073-.061-.096.003.01.25Zm-8.676-.913.047-.245-.117-.023-.091.077.161.191Zm-21.75 18.36.162.192-.161-.192Zm-2.3-.194.191-.161-.191.161Zm.193-2.301.16.192v-.001l-.16-.191ZM48.31 82.878l-.161-.191.161.19Zm1.373-.355-.05.245h.002l.048-.245Zm18.557-3.08-.162-.19.162.19Zm14.842-12.529.161.191-.161-.19Zm1.227-2.387.249.02-.25-.02Zm-.812-2.558-.192.161.192-.16Zm-2.385-1.23.022-.248h-.003l-.019.249Zm-2.554.807.146.204.008-.006.007-.006-.16-.192Zm-.004.004-.146-.204-.008.006-.008.007.162.19Zm-2.301-.196.19-.161-.19.16Zm.196-2.301.16.19.009-.006.007-.007-.176-.177Zm.001-.002-.16-.19-.009.006-.007.007.176.177Zm3.178-2.681.161.19-.16-.19Zm.42-4.949-.191.161.191-.16Zm-2.382-1.226.02-.25-.02.25Zm-2.556.812v.25h.092l.07-.06-.162-.19Zm-.002 0v-.25h-.091l-.07.059.161.19Zm-2.3-.193.19-.161-.19.161Zm.19-2.301v-.25h-.091l-.07.06.161.19Zm.004-.002-.162-.19-.008.006-.007.008.177.176Zm2.62-2.216-.162-.191.161.191Zm.42-4.948-.191.16v.001l.191-.161Zm-2.39-1.225.02-.249h-.001l-.02.25Zm-2.543.802-.16-.192-.01.008-.007.007.177.177Zm-.008.008.16.191.009-.006.007-.008-.176-.177Zm-2.3-.191.191-.161-.19.161Zm.19-2.3.161.19.008-.007.008-.007-.177-.177Zm.002-.003-.162-.19-.008.006-.007.008.177.176Zm1.234-1.045-.161-.19.161.19Zm.422-4.948-.192.161.192-.161Zm-2.387-1.227-.023.25h.003l.02-.25Zm-2.562.807-.16-.191h-.001l.161.191Zm-9.548 8.063-.162-.191-.196.165.171.192.187-.166Zm1.782 4.323.25-.01-.25.01Zm-1.758 4.613-.176-.177-.008.008-.008.009.192.16Zm-4.507 2.272-.021-.25-.002.001.023.249Zm-1.225-.03.032-.247-.032.248Zm-.168-.02.03-.249-.297-.036.017.3.25-.016Zm.013.083.245-.049-.245.05Zm0 0-.245.05.245-.05Zm.013.088.25-.011v-.004l-.25.015ZM48.56 56.04l-.177-.176-.007.007-.007.007.191.162Zm-5.07 2.307v-.25h-.294l.047.29.247-.04Zm-1.474 5.448.191.162-.19-.162Zm-3.574 2.192-.06-.243-.315.077.155.285.22-.119Zm.806 2.674-.249.02.25-.02Zm-1.572 4.936-.191-.161.19.161Zm-4.6 2.373.022.25-.021-.25Zm-4.938-1.566.162-.191-.162.191Zm-5.353-4.514.162-.19-.162-.137-.16.136.16.191ZM9.438 81.154l.16.191-.16-.191Zm-2.303-.196-.191.161.19-.161Zm.196-2.301.16.191h.001l-.161-.191ZM20.633 67.43l.16.19.155-.13-.095-.178-.22.118Zm.782-7.57.19.162-.19-.162Zm3.205-2.11.073.24.341-.104-.214-.285-.2.15Zm.24-8.434-.19-.162.19.161Zm3.407-2.166.065.241.322-.087-.174-.284-.213.13Zm-.965-2.969-.25.021.25-.02Zm1.568-4.94-.191-.161.19.161Zm4.17-2.322.037.247.298-.044-.098-.284-.236.08Zm1.22-6.58-.19-.161.19.161Zm9.553-.812.16-.19v-.001l-.16.191Zm1.66 1.403-.16.191.324.274.082-.417-.245-.048Zm1.087-2.66.207.139-.208-.14Zm9.167-2.084-.115.222.01.004.105-.226Zm7.62 3.555-.105.227.145.067.122-.103-.162-.19Zm.252-.212-.161-.191.16.19Zm4.945-1.566-.022.249.022-.25Zm4.607 2.376-.192.161.192-.161Zm1.221 6.58-.236-.081-.098.284.297.044.037-.247Zm4.17 2.32.192-.16v-.001l-.191.161Zm.602 7.91-.214-.13-.174.286.323.086.065-.241Zm3.406 2.168.192-.16-.192.16Zm.242 8.435-.2-.15-.214.287.342.102.072-.239Zm3.206 2.113-.192.161.192-.16Zm1.57 4.937-.248-.021.249.02Zm-38.122-30.52-.161.19.357-.346-.196.156Zm-.17-4.197.208.139-.208-.14Zm.17 4.197.101-.229-.297.384.196-.155Zm.002.004.248-.032-.248.032Zm0 0 .244-.057v-.002l-.244.06Zm.001.002-.194.157.014.018.018.015.162-.19Zm.012.01-.163.19.001.001.162-.191Zm4.246 3.583-.162.191.162.136.16-.136-.16-.191Zm6.893-5.82.161.19.299-.252-.354-.165-.106.227Zm-6.314-2.946-.114.222.009.004.105-.226ZM35.183 71.487l.191.161.28-.332-.428-.075-.043.246Zm-2.381 1.227-.02-.25-.002.001.022.249Zm2.38-1.227-.19-.161-.282.333.43.075.043-.247Zm.814-2.557.25-.02-.25.02Zm-1.224-2.386-.162.191.162-.19Zm-5.948-5.015.16-.191v-.002l-.16.193Zm-4.912.44.19.16-.19-.16Zm.416 4.95-.162.19.162-.19Zm5.917 4.987.16-.192-.16.192Zm9.277-10.219.19.162.012-.013.009-.014-.211-.135Zm-4.945.423-.161.191.161-.19Zm4.945-.423-.191-.161-.011.013-.01.014.212.134Zm-.423-4.945-.161.191.16-.19Zm-6.779-5.727-.177.177.008.007.008.007.161-.191Zm-.006-.003.079-.237-.08.237Zm-.009-.005.177-.177-.007-.007-.008-.007-.162.19Zm-2.559-.812-.02-.25-.001.001.021.25Zm-2.389 1.228-.191-.161.191.161Zm.423 4.948-.162.191.162-.19Zm3.176 2.68.177-.176-.007-.008-.009-.007-.16.191Zm.002.002-.177.177.007.006.17-.183Zm.006.008.212-.133-.212.133Zm.003.004.194-.157-.194.157Zm.003.003.16-.191-.007-.007-.008-.006-.145.204Zm15.188-5.239-.054-.244-.082.018-.054.064.19.162Zm-4.95.418-.16.191.16-.19Zm4.95-.418.055.244.072-.016.052-.052-.178-.176Zm.888-2.275.25-.01v-.001l-.25.01Zm-1.31-2.672.161-.191-.161.19Zm-9.421-7.95-.166.188.004.003.162-.19Zm-.015-.013.166-.187-.006-.005-.16.192Zm-2.548-.797.021.25h.003l-.024-.25Zm-2.386 1.225.191.161-.19-.16Zm-.808 2.56.249-.022-.25.021Zm1.226 2.385.162-.19-.162.19Zm2.602 2.195.177-.177-.008-.007-.008-.007-.161.191Zm.006.003-.177.177.008.008.008.007.161-.192Zm19.39-1.677.191.161.208-.246-.29-.14-.11.225Zm-2.383 1.227-.02-.25h-.002l.022.25Zm2.383-1.227-.178-.175-.246.249.315.151.109-.225Zm.895-2.267.25-.01v-.001l-.25.01Zm-1.308-2.674-.161.191.161-.19Zm-4.781-4.038.16-.191-.069-.06h-.091v.25Zm-.002 0-.161.19.07.06h.09v-.25Zm-1.098-.926-.161.19.161-.19Zm-3.547-2.995-.177.176.008.008.008.006.161-.19Zm-.001-.002-.218.124.005.007.213-.131Zm0 0 .217-.125-.005-.008-.212.133Zm-.002-.002-.162.191.07.06h.092v-.25Zm-2.233-1.886.161-.191-.16.19Zm-4.948.423-.19-.162h-.001l.19.162Zm.423 4.946-.162.191.162-.19Zm1.22 1.027.172-.18-.005-.006-.006-.005-.161.191Zm.01.008.15-.2-.15.2Zm.005.004.157-.194-.158.194Zm.005.005-.177.177.007.007.008.007.162-.191Zm9.423 7.951.161-.19-.161.19Zm.784.817-.19.163.133.155.18-.1-.123-.218Zm.218.03.162-.19h-.001l-.16.19ZM83.21 19.26l.2.148h.002l-.202-.148Zm5.08-6.925.202.148-.201-.148Zm-.35-2.283.147-.201-.148.201Zm-2.284.351-.201-.147.201.147Zm-5.08 6.925-.202-.148.202.148Zm.351 2.283-.148.201.148-.201Zm-43.631-.351.202-.148-.202.148Zm-5.082-6.925.201-.147-.201.147Zm.35-2.281.147.202-.148-.202Zm2.28.35.202-.149-.201.148Zm5.084 6.924-.201.148.201-.148Zm-.35 2.281.149.202-.148-.202Zm20.668-4.128a1.882 1.882 0 0 0 1.883-1.883h-.5c0 .765-.618 1.383-1.383 1.383v.5Zm-1.883-1.883c0 1.041.842 1.883 1.883 1.883v-.5a1.382 1.382 0 0 1-1.383-1.383h-.5Zm0-8.59v8.59h.5v-8.59h-.5Zm1.883-1.883a1.882 1.882 0 0 0-1.883 1.883h.5c0-.765.618-1.383 1.383-1.383v-.5Zm1.883 1.883a1.882 1.882 0 0 0-1.883-1.883v.5c.764 0 1.383.618 1.383 1.383h.5Zm0 8.59v-8.59h-.5v8.59h.5Zm38.113 64.87L86.948 67.24l-.323.382L99.92 78.85l.322-.382Zm-.053-.035-.215.45v.001l.215-.451Zm.28 2.688a1.885 1.885 0 0 0-.226-2.653l-.322.382c.583.492.657 1.365.165 1.949l.383.322Zm-1.44.667a1.88 1.88 0 0 0 1.439-.667l-.381-.323c-.274.324-.664.49-1.059.49v.5Zm-1.216-.445c.354.3.786.445 1.215.445v-.5c-.316 0-.632-.107-.892-.326l-.323.381Zm-13.34-11.265 13.34 11.265.323-.382-13.34-11.265-.323.382ZM70.51 82.133l14.285-12.055-.322-.382-14.286 12.055.323.382Zm-7.632 4.247c2.513-.712 5.013-2.037 7.632-4.247l-.323-.382c-2.572 2.17-5.01 3.458-7.445 4.148l.136.481Zm18.736 15.169L62.97 85.948l-.32.383 18.643 15.601.32-.383Zm.235 2.651a1.882 1.882 0 0 0-.236-2.652l-.32.384c.586.489.662 1.36.172 1.947l.384.321Zm-1.446.674c.538 0 1.073-.23 1.446-.674l-.383-.321a1.384 1.384 0 0 1-1.063.495v.5Zm-1.208-.438c.355.295.783.438 1.208.438v-.5c-.312 0-.626-.105-.889-.323l-.319.385ZM58.336 86.983l20.858 17.452.321-.383-20.858-17.453-.32.384Zm-8.563-.86c3.103.6 5.963 1.02 8.733.918l-.019-.5c-2.71.1-5.524-.311-8.62-.908l-.094.49Zm-21.54 18.307L49.98 86.07l-.322-.383-21.75 18.36.323.383Zm-1.215.444c.429 0 .859-.145 1.214-.444l-.322-.383a1.375 1.375 0 0 1-.892.327v.5Zm-1.44-.669c.372.441.904.669 1.44.669v-.5c-.395 0-.785-.168-1.057-.491l-.382.322Zm.224-2.653a1.88 1.88 0 0 0-.223 2.653l.382-.322a1.38 1.38 0 0 1 .163-1.948l-.322-.383ZM48.15 82.687 25.8 101.552l.323.382 22.348-18.865-.322-.382Zm1.586-.408a1.863 1.863 0 0 0-1.586.408l.322.382c.326-.274.75-.387 1.161-.3l.103-.49Zm18.343-3.027c-2.995 2.529-5.712 3.649-8.6 3.96-2.902.313-5.992-.187-9.746-.934l-.097.49c3.75.746 6.91 1.263 9.896.941 3-.323 5.808-1.49 8.87-4.075l-.323-.382Zm14.843-12.529-14.843 12.53.323.381 14.842-12.529-.322-.382Zm1.138-2.218a3.24 3.24 0 0 1-1.138 2.218l.322.382a3.74 3.74 0 0 0 1.315-2.557l-.499-.043Zm-.753-2.374c.56.662.826 1.504.753 2.375l.499.041a3.735 3.735 0 0 0-.87-2.739l-.382.322Zm-2.215-1.142a3.223 3.223 0 0 1 2.214 1.141l.383-.322a3.722 3.722 0 0 0-2.554-1.317l-.043.498Zm-2.372.749a3.252 3.252 0 0 1 2.374-.75l.038-.498a3.752 3.752 0 0 0-2.734.865l.322.383Zm-.02.015.005-.003-.29-.407-.006.003.29.407Zm-2.638-.238c.67.794 1.857.898 2.654.226l-.323-.382a1.381 1.381 0 0 1-1.948-.166l-.382.322Zm.226-2.653a1.883 1.883 0 0 0-.225 2.653l.382-.322a1.383 1.383 0 0 1 .166-1.95l-.323-.381Zm-.013.012-.002.002.353.354.002-.002-.353-.354Zm3.193-2.696L76.29 58.86l.322.382 3.178-2.681-.322-.383Zm.39-4.596a3.27 3.27 0 0 1-.39 4.596l.323.382a3.77 3.77 0 0 0 .45-5.3l-.383.322Zm-2.213-1.138a3.223 3.223 0 0 1 2.213 1.138l.382-.322a3.724 3.724 0 0 0-2.552-1.314l-.043.498Zm-2.372.753c.659-.56 1.525-.82 2.374-.753l.04-.498a3.784 3.784 0 0 0-2.738.87l.324.381Zm-.164.06h.002v-.5h-.002v.5Zm-2.492-.282c.67.795 1.86.895 2.654.222l-.323-.381a1.381 1.381 0 0 1-1.949-.163l-.382.322Zm.22-2.653a1.883 1.883 0 0 0-.22 2.654l.382-.324a1.383 1.383 0 0 1 .162-1.948l-.323-.382Zm.166.19a42.918 42.918 0 0 1-.177-.178h.001l.002-.002.003-.003.008-.007a.231.231 0 0 1 .068-.041.244.244 0 0 1 .091-.018v.5a.255.255 0 0 0 .174-.069l.004-.003.001-.002h.001l-.176-.178Zm2.458-2.408-2.62 2.217.323.381 2.62-2.216-.323-.382Zm.391-4.596a3.267 3.267 0 0 1-.391 4.596l.322.382a3.767 3.767 0 0 0 .452-5.3l-.383.322Zm-2.22-1.137a3.226 3.226 0 0 1 2.22 1.137l.383-.322a3.726 3.726 0 0 0-2.562-1.313l-.041.498Zm-2.362.745a3.274 3.274 0 0 1 2.363-.745l.039-.498a3.774 3.774 0 0 0-2.723.86l.321.383Zm.008-.007.009-.008-.354-.354-.008.008.353.354Zm-2.667-.207c.67.794 1.858.89 2.652.221l-.323-.382a1.382 1.382 0 0 1-1.947-.161l-.382.322Zm.22-2.653a1.881 1.881 0 0 0-.22 2.654l.382-.324a1.381 1.381 0 0 1 .16-1.948l-.323-.382Zm-.014.013-.002.001.354.354.001-.002-.353-.353Zm1.25-1.06-1.235 1.046.323.381 1.235-1.045-.323-.382Zm.391-4.596a3.27 3.27 0 0 1-.391 4.596l.323.382a3.77 3.77 0 0 0 .45-5.3l-.382.322Zm-2.215-1.138c.873.073 1.66.477 2.215 1.138l.383-.322a3.722 3.722 0 0 0-2.557-1.315l-.041.499Zm-2.381.749a3.204 3.204 0 0 1 2.378-.75l.047-.497a3.704 3.704 0 0 0-2.747.864l.322.383Zm-9.548 8.062 9.548-8.063-.322-.382-9.549 8.063.323.382Zm1.87 4.121c-.07-1.674-.747-3.246-1.845-4.478l-.373.332c1.026 1.152 1.654 2.615 1.719 4.167l.5-.02Zm-1.83 4.802c1.258-1.253 1.907-2.96 1.83-4.802l-.5.021c.071 1.709-.528 3.278-1.683 4.426l.352.355Zm-4.663 2.343c1.87-.159 3.568-1.033 4.678-2.36l-.384-.321c-1.02 1.22-2.591 2.035-4.336 2.183l.042.498Zm-.609.027c.201 0 .407-.008.61-.027l-.045-.498a6.214 6.214 0 0 1-.565.025v.5Zm-.67-.057c.209.027.435.057.67.057v-.5c-.197 0-.391-.025-.605-.053l-.065.496Zm-.165-.022.165.022.065-.496-.17-.022-.06.496Zm.288-.213a.39.39 0 0 1-.008-.05l-.5.03c.003.049.013.093.018.119l.49-.099Zm0 0-.49.098.49-.098Zm.018.122c-.003-.05-.013-.096-.018-.122l-.49.099a.41.41 0 0 1 .009.052l.499-.029Zm-1.816 4.814c1.251-1.258 1.896-2.97 1.816-4.81l-.5.022c.074 1.707-.522 3.28-1.671 4.436l.355.352Zm-5.244 2.381c1.973 0 3.92-.818 5.257-2.395l-.382-.324c-1.234 1.458-3.039 2.22-4.875 2.22v.5Zm-.005 0h.005v-.5h-.005v.5Zm-1.282 5.36c1.374-1.63 1.845-3.7 1.53-5.65l-.494.08c.294 1.818-.146 3.738-1.418 5.247l.383.323ZM38.5 66.23a6.962 6.962 0 0 0 3.707-2.273l-.382-.323a6.463 6.463 0 0 1-3.442 2.11l.117.486Zm.997 2.41a7.025 7.025 0 0 0-.836-2.772l-.44.238c.428.788.701 1.655.778 2.575l.498-.041Zm-1.63 5.119a6.963 6.963 0 0 0 1.63-5.12l-.498.043a6.463 6.463 0 0 1-1.514 4.754l.381.323Zm-4.769 2.46a6.962 6.962 0 0 0 4.769-2.46l-.383-.323a6.461 6.461 0 0 1-4.428 2.285l.042.498Zm-.607.027c.202 0 .405-.01.607-.027l-.042-.498c-.19.016-.38.025-.565.025v.5Zm-4.514-1.65a6.966 6.966 0 0 0 4.514 1.65v-.5a6.466 6.466 0 0 1-4.191-1.533l-.323.382Zm-5.353-4.515 5.353 4.514.323-.382-5.354-4.514-.322.382ZM9.6 81.345 22.946 70.08l-.323-.382L9.276 80.963l.323.382Zm-1.213.442c.429 0 .859-.145 1.212-.442l-.321-.383c-.26.22-.576.325-.891.325v.5Zm-1.442-.668c.373.44.904.668 1.442.668v-.5c-.397 0-.786-.167-1.06-.49l-.382.322Zm.226-2.653a1.882 1.882 0 0 0-.226 2.653l.382-.323a1.382 1.382 0 0 1 .166-1.948l-.322-.382ZM20.47 67.24 7.17 78.466l.322.382 13.302-11.226-.323-.382Zm.753-7.54c-1.91 2.26-2.129 5.383-.812 7.849l.441-.236c-1.225-2.293-1.019-5.194.753-7.29l-.382-.323Zm3.324-2.188a6.983 6.983 0 0 0-3.324 2.188l.382.323a6.484 6.484 0 0 1 3.087-2.032l-.145-.479Zm.121-8.357c-2.146 2.548-2.165 6.186-.249 8.746l.4-.3c-1.78-2.378-1.76-5.759.232-8.123l-.383-.323Zm3.533-2.245a6.992 6.992 0 0 0-3.533 2.245l.383.323a6.492 6.492 0 0 1 3.28-2.086l-.13-.482Zm-1.15-2.707a7.035 7.035 0 0 0 1.002 3.078l.427-.26a6.535 6.535 0 0 1-.93-2.86l-.498.042Zm1.627-5.122a6.988 6.988 0 0 0-1.626 5.122l.498-.042a6.488 6.488 0 0 1 1.51-4.758l-.383-.322Zm4.325-2.409a6.965 6.965 0 0 0-4.325 2.409l.382.322a6.464 6.464 0 0 1 4.016-2.236l-.073-.495Zm1.066-6.493A7.03 7.03 0 0 0 32.803 37l.473-.162a6.53 6.53 0 0 1 1.175-6.338l-.383-.322Zm9.904-.842c-2.966-2.496-7.406-2.115-9.904.842l.382.322a6.544 6.544 0 0 1 9.2-.781l.322-.383Zm1.66 1.403-1.66-1.403-.323.382 1.661 1.403.323-.382Zm.718-2.608a7.521 7.521 0 0 0-1.124 2.75l.49.097a7.022 7.022 0 0 1 1.05-2.57l-.416-.277Zm9.49-2.167c-4.114-2.136-7.74-.453-9.49 2.167l.415.278c1.627-2.434 4.983-4.006 8.845-2.001l.23-.444Zm7.611 3.55-7.62-3.555-.211.453 7.62 3.556.211-.453Zm-.015-.176-.252.212.323.382.251-.212-.322-.382Zm5.127-1.624a6.956 6.956 0 0 0-5.127 1.624l.322.382a6.455 6.455 0 0 1 4.762-1.508l.043-.498Zm4.777 2.464a6.97 6.97 0 0 0-4.777-2.464l-.043.498a6.47 6.47 0 0 1 4.437 2.288l.383-.322Zm1.267 6.822a7.034 7.034 0 0 0-1.267-6.822l-.382.322a6.534 6.534 0 0 1 1.176 6.338l.473.162Zm4.125 2.078a6.972 6.972 0 0 0-4.325-2.407l-.074.495a6.472 6.472 0 0 1 4.017 2.235l.382-.323Zm.623 8.202a7.047 7.047 0 0 0-.623-8.202l-.382.322a6.547 6.547 0 0 1 .578 7.62l.427.26Zm3.385 1.876a6.951 6.951 0 0 0-3.534-2.248l-.129.483a6.451 6.451 0 0 1 3.28 2.087l.383-.322Zm.25 8.746c1.915-2.56 1.893-6.199-.25-8.746l-.383.322c1.99 2.365 2.012 5.746.233 8.124l.4.3Zm3.197 1.802a6.94 6.94 0 0 0-3.325-2.191l-.144.478a6.44 6.44 0 0 1 3.086 2.035l.383-.322Zm1.629 5.119a6.969 6.969 0 0 0-1.63-5.12l-.381.324a6.469 6.469 0 0 1 1.513 4.754l.498.042Zm-.811 2.726c.447-.832.73-1.754.81-2.726l-.497-.042a6.485 6.485 0 0 1-.754 2.532l.44.236Zm-37.4-33.458c-.549-.464-.781-1.12-.775-1.826.007-.708.256-1.45.652-2.041l-.415-.278c-.445.664-.73 1.5-.737 2.315-.007.819.266 1.632.953 2.212l.322-.382Zm-.357.346.392-.31-.392.31Zm.446-.184v-.005l-.003-.014a.253.253 0 0 0-.145-.18l-.204.456a.247.247 0 0 1-.124-.124c-.018-.038-.02-.075-.02-.068l.496-.065Zm-.005-.026.004.02.001.007-.496.064v.002l.001.005a.28.28 0 0 0 .005.021l.485-.119Zm-.048-.096c.032.04.044.079.049.098l-.487.116c.005.02.017.06.05.1l.388-.314Zm-.02-.023-.012-.01-.324.38.011.01.325-.38Zm4.245 3.582-4.246-3.583-.323.382 4.246 3.583.323-.382Zm6.57-5.82-6.893 5.82.323.382 6.893-5.82-.322-.382Zm-6.257-2.529 6.313 2.946.212-.453-6.314-2.946-.211.453Zm-4.697.883c.195-.291.661-.88 1.424-1.212.748-.326 1.818-.422 3.264.325l.23-.444c-1.567-.81-2.794-.731-3.694-.339-.887.387-1.42 1.062-1.64 1.392l.416.278ZM34.992 71.327a3.212 3.212 0 0 1-2.21 1.138l.041.498c1-.084 1.908-.55 2.551-1.315l-.383-.321Zm.148.407.086-.493-.086.493Zm.607-2.783a3.232 3.232 0 0 1-.755 2.375l.382.323a3.731 3.731 0 0 0 .871-2.74l-.498.042Zm-1.136-2.215a3.22 3.22 0 0 1 1.136 2.215l.498-.041a3.72 3.72 0 0 0-1.312-2.557l-.322.383Zm-5.948-5.016 5.947 5.015.323-.382-5.948-5.015-.322.382Zm-4.56.41a3.254 3.254 0 0 1 4.561-.408l.32-.386a3.754 3.754 0 0 0-5.264.471l.383.322Zm.387 4.598a3.269 3.269 0 0 1-.388-4.598l-.381-.323a3.769 3.769 0 0 0 .445 5.302l.324-.381Zm5.916 4.987-5.917-4.988-.322.382 5.916 4.988.323-.382Zm2.374.75a3.2 3.2 0 0 1-2.374-.75l-.323.382a3.7 3.7 0 0 0 2.741.866l-.044-.498Zm6.55-10.939a3.267 3.267 0 0 1-4.592.393l-.322.382a3.767 3.767 0 0 0 5.297-.453l-.382-.322Zm-.02.027.423.269-.422-.27Zm-.372-4.62a3.266 3.266 0 0 1 .393 4.593l.382.322a3.766 3.766 0 0 0-.453-5.297l-.322.383Zm-6.78-5.727 6.78 5.727.322-.382-6.779-5.727-.322.382Zm.077.043c.004.001-.008-.002-.02-.008a.242.242 0 0 1-.072-.049l.353-.354a.26.26 0 0 0-.103-.063l-.158.474Zm-.105-.064a.259.259 0 0 0 .105.064l.158-.474.021.008c.015.007.042.021.07.049l-.354.353Zm-.002-.001.002.001.354-.353-.002-.002-.353.354Zm-2.361-.74a3.238 3.238 0 0 1 2.377.754l.323-.382a3.738 3.738 0 0 0-2.741-.87l.04.498Zm-2.219 1.14a3.242 3.242 0 0 1 2.22-1.14l-.043-.498a3.742 3.742 0 0 0-2.559 1.316l.382.323Zm.394 4.597a3.271 3.271 0 0 1-.394-4.597l-.382-.322a3.771 3.771 0 0 0 .452 5.3l.324-.381Zm3.175 2.68-3.176-2.68-.322.382 3.176 2.68.322-.383Zm.018.015-.002-.001-.354.353.002.002.354-.354Zm.04.052a.275.275 0 0 0-.047-.058l-.34.366a.22.22 0 0 1-.029-.032l-.007-.01.423-.266Zm-.014-.02.012.016.003.004-.424.265.005.009a.274.274 0 0 0 .015.02l.39-.314Zm-.046-.044a.235.235 0 0 1 .046.044l-.389.314a.26.26 0 0 0 .052.05l.29-.408Zm3.623 3.055-3.607-3.042-.323.382 3.608 3.042.322-.382Zm11.23-8.252a3.268 3.268 0 0 1-4.598.39l-.323.381a3.769 3.769 0 0 0 5.302-.448l-.381-.323Zm.136-.082.109.488-.108-.488Zm.692-2.021a2.71 2.71 0 0 1-.815 2.09l.356.35a3.21 3.21 0 0 0 .958-2.46l-.5.02Zm-1.221-2.491a3.518 3.518 0 0 1 1.221 2.491l.5-.021a4.018 4.018 0 0 0-1.399-2.852l-.322.382Zm-9.422-7.95 9.422 7.95.322-.382-9.421-7.95-.323.382Zm-.019-.017.015.013.331-.374-.015-.013-.33.374Zm-2.358-.735c.853-.08 1.704.19 2.364.74l.32-.384a3.723 3.723 0 0 0-2.731-.853l.047.497Zm-2.219 1.137a3.226 3.226 0 0 1 2.216-1.137l-.042-.498a3.726 3.726 0 0 0-2.556 1.313l.382.322Zm-.75 2.377a3.236 3.236 0 0 1 .75-2.377l-.382-.322a3.736 3.736 0 0 0-.866 2.742l.498-.043Zm1.138 2.216a3.228 3.228 0 0 1-1.138-2.216l-.498.043a3.728 3.728 0 0 0 1.314 2.556l.322-.383Zm2.602 2.195-2.601-2.195-.323.382 2.601 2.195.323-.382Zm.022.018a.256.256 0 0 0-.09-.058l-.004-.002h-.002a.188.188 0 0 1 .023.009c.014.007.04.021.067.047l-.354.354a.256.256 0 0 0 .07.05l.019.008.005.002h.002a.188.188 0 0 1-.023-.01.241.241 0 0 1-.067-.047l.354-.353Zm6.8 5.742L34.554 48.3l-.322.382 6.816 5.756.323-.382Zm12.222-7.404a3.224 3.224 0 0 1-2.213 1.139l.043.498a3.724 3.724 0 0 0 2.552-1.315l-.382-.322Zm.082.386.217-.45-.217.45Zm.755-2.482c.03.777-.227 1.477-.824 2.082l.356.35c.693-.701 1.004-1.536.967-2.452l-.5.02Zm-1.22-2.493a3.51 3.51 0 0 1 1.22 2.493l.5-.021a4.01 4.01 0 0 0-1.398-2.854l-.322.382Zm-4.782-4.038 4.782 4.038.322-.382-4.781-4.038-.323.382Zm.16.059h.002v-.5h-.002v.5Zm-1.259-.985 1.098.926.322-.382-1.097-.926-.323.382Zm-3.547-2.995 3.547 2.995.323-.382-3.548-2.995-.322.381Zm-.053-.062c.002.003.015.025.037.047l.354-.353c.02.02.033.041.035.044l-.426.262Zm-.004-.007.434-.248-.434.248Zm.215.124a.248.248 0 0 1-.203-.104l-.007-.012.424-.265-.002-.003a.257.257 0 0 0-.122-.1.251.251 0 0 0-.09-.016v.5Zm-2.394-1.945 2.232 1.886.323-.382-2.233-1.886-.322.382Zm-4.596.393a3.273 3.273 0 0 1 4.596-.393l.322-.382a3.773 3.773 0 0 0-5.3.452l.382.323Zm.393 4.595a3.27 3.27 0 0 1-.393-4.595l-.382-.322a3.77 3.77 0 0 0 .452 5.298l.323-.381Zm1.22 1.026-1.22-1.027-.322.383 1.22 1.027.322-.383Zm-.001 0c-.002-.002 0 0 .001 0l.011.01-.344.363c.015.014.029.024.031.026l.3-.4Zm.012.01a.307.307 0 0 0-.012-.01l-.301.4c.002 0 0 0-.002-.003l.315-.388Zm.024.021a.318.318 0 0 0-.024-.022l-.315.388a.18.18 0 0 1-.014-.012l.353-.354Zm9.408 7.937-9.423-7.951-.323.382 9.423 7.951.323-.382Zm.812.845a7.347 7.347 0 0 0-.812-.844l-.323.381c.272.23.51.502.756.788l.38-.325Zm.19.002a.465.465 0 0 0-.247-.111.42.42 0 0 0-.255.054l.245.436s-.005.003-.014.005a.095.095 0 0 1-.032.001c-.024-.002-.031-.012-.018-.002l.32-.383Zm2.37.748a3.194 3.194 0 0 1-2.37-.747l-.322.382c.759.64 1.728.955 2.738.863l-.045-.498ZM83.01 19.11a1.39 1.39 0 0 1-1.118.565v.5c.58 0 1.15-.268 1.52-.768l-.402-.297Zm5.08-6.924-5.08 6.925.403.295 5.08-6.924-.403-.296Zm-.298-1.933c.616.452.749 1.318.298 1.934l.403.295a1.885 1.885 0 0 0-.405-2.632l-.296.403Zm-1.933.297a1.383 1.383 0 0 1 1.934-.297l.295-.403a1.883 1.883 0 0 0-2.632.405l.403.295Zm-5.08 6.925 5.08-6.925-.403-.295-5.08 6.924.403.296Zm.297 1.933a1.385 1.385 0 0 1-.297-1.933l-.404-.296a1.885 1.885 0 0 0 .405 2.632l.296-.403Zm.816.267a1.38 1.38 0 0 1-.817-.267l-.294.404a1.88 1.88 0 0 0 1.11.363v-.5Zm-44.797-.269c.368.504.94.769 1.52.769v-.5c-.428 0-.848-.195-1.116-.564l-.404.295Zm-5.082-6.924 5.082 6.925.403-.296-5.082-6.924-.403.295Zm.403-2.63a1.881 1.881 0 0 0-.403 2.63l.403-.296a1.381 1.381 0 0 1 .296-1.931l-.296-.404Zm2.631.402a1.882 1.882 0 0 0-2.63-.403l.295.404a1.382 1.382 0 0 1 1.932.295l.403-.296Zm5.084 6.925-5.084-6.925-.403.296 5.084 6.925.403-.296Zm-.403 2.63a1.881 1.881 0 0 0 .403-2.63l-.403.296c.452.615.32 1.48-.296 1.931l.296.404Zm-1.113.366c.386 0 .776-.119 1.113-.365l-.296-.404a1.378 1.378 0 0 1-.817.269v.5Z"/></g></svg>